<svg width="56" height="57" viewBox="0 0 56 57" fill="none" xmlns="http://www.w3.org/2000/svg">
<path d="M25.03 2.91368C25.1615 2.91263 25.2929 2.91158 25.4283 2.9105C25.6416 2.9098 25.6416 2.9098 25.8592 2.90909C26.0067 2.90846 26.1543 2.90783 26.3018 2.9072C26.6112 2.90605 26.9206 2.90541 27.23 2.90503C27.6253 2.90443 28.0207 2.90181 28.416 2.89869C28.7209 2.89665 29.0257 2.89608 29.3306 2.89592C29.5469 2.89543 29.7632 2.89339 29.9794 2.89133C30.1119 2.89166 30.2444 2.89198 30.3809 2.89232C30.4969 2.89192 30.613 2.89152 30.7326 2.89111C31.2914 2.95917 31.7181 3.19605 32.0743 3.62857C32.1268 3.69033 32.1792 3.75208 32.2333 3.81571C32.6649 4.45272 32.624 5.08233 32.6336 5.83017C32.6667 6.2273 32.6667 6.2273 32.966 6.45822C33.0597 6.52153 33.1535 6.58483 33.2501 6.65006C33.7267 7.28929 33.797 7.83012 33.797 8.60514C33.819 9.15744 33.819 9.15744 34.1093 9.59976C34.2806 9.70305 34.4553 9.8009 34.6327 9.89328C35.1708 10.2006 35.4684 10.6962 35.673 11.2677C35.7601 11.6563 35.7809 11.9823 35.7793 12.3765C35.7612 13.1208 35.7612 13.1208 36.0571 13.7765C36.2826 13.9336 36.2826 13.9336 36.5237 14.0611C37.0602 14.383 37.305 15.0103 37.463 15.5928C37.5833 16.151 37.6411 16.7209 37.714 17.2868C38.0853 20.0087 38.694 22.7451 40.9247 24.5619C41.5224 25.0064 42.1595 25.3348 42.8255 25.6611C45.057 26.7549 47.4231 28.0135 48.3439 30.4938C48.8979 32.391 48.677 34.4938 47.7456 36.2195C46.4175 38.5124 43.9788 39.9027 41.4872 40.6008C39.803 41.0332 38.0405 41.1032 36.3126 41.2126C36.2236 41.2185 36.1346 41.2244 36.0429 41.2304C14.9779 42.5985 14.9779 42.5985 9.28331 38.1296C7.89881 36.8308 6.93022 35.1798 6.85399 33.2602C6.82352 31.2084 7.14097 29.7288 8.58605 28.1901C9.72141 27.1141 11.0206 26.4485 12.4293 25.795C14.5884 24.7819 16.0608 23.3678 16.9259 21.1286C17.3268 19.9191 17.5411 18.6608 17.7107 17.4004C17.7281 17.275 17.7455 17.1495 17.7635 17.0203C17.7966 16.7761 17.8276 16.5317 17.856 16.2869C17.9643 15.4862 18.1798 14.8269 18.7032 14.1969C18.9464 14.0395 18.9464 14.0395 19.1749 13.9235C19.4283 13.7568 19.5574 13.6404 19.6205 13.3388C19.6524 12.9984 19.6592 12.6599 19.664 12.3182C19.6779 11.4038 19.8578 10.729 20.4942 10.0475C20.7417 9.80884 20.9136 9.70358 21.2398 9.57584C21.3412 9.51267 21.4425 9.44951 21.547 9.38443C21.6302 9.02309 21.6302 9.02309 21.6085 8.61197C21.6205 7.86136 21.7439 7.25898 22.2032 6.65006C22.2984 6.58562 22.3936 6.52119 22.4916 6.45481C22.7896 6.22534 22.7896 6.22534 22.8121 5.81778C22.8138 5.66683 22.8136 5.51585 22.8116 5.3649C22.8296 4.69526 22.849 4.11711 23.297 3.58756C23.8401 3.09761 24.2952 2.91842 25.03 2.91368ZM24.7189 4.90006C24.7189 5.2249 24.7189 5.54975 24.7189 5.88443C26.704 5.88443 28.6892 5.88443 30.7345 5.88443C30.7345 5.55959 30.7345 5.23475 30.7345 4.90006C30.5521 4.71771 30.3327 4.77674 30.0823 4.77653C29.9666 4.77619 29.8509 4.77584 29.7317 4.77549C29.6058 4.77571 29.4799 4.77593 29.3502 4.77616C29.222 4.77605 29.0937 4.77595 28.9616 4.77584C28.6898 4.77576 28.418 4.77597 28.1462 4.77642C27.7285 4.77701 27.3108 4.77643 26.8931 4.77573C26.6298 4.7758 26.3665 4.77594 26.1031 4.77616C25.9772 4.77594 25.8514 4.77571 25.7216 4.77549C25.6059 4.77583 25.4903 4.77618 25.371 4.77653C25.2686 4.77662 25.1662 4.7767 25.0607 4.77679C24.8299 4.76477 24.8299 4.76477 24.7189 4.90006ZM23.5157 8.07193C23.5157 8.43287 23.5157 8.79381 23.5157 9.16568C26.295 9.16568 29.0742 9.16568 31.9376 9.16568C31.9376 8.80475 31.9376 8.44381 31.9376 8.07193C31.5333 7.66764 31.4205 7.70242 30.8646 7.70135C30.7893 7.70078 30.7141 7.7002 30.6365 7.69961C30.3877 7.69816 30.139 7.69912 29.8902 7.70023C29.7174 7.70001 29.5445 7.69969 29.3717 7.69928C29.0094 7.69879 28.6472 7.6995 28.2849 7.70103C27.8204 7.7029 27.3559 7.70182 26.8913 7.69986C26.5344 7.69867 26.1775 7.69905 25.8206 7.6999C25.6493 7.70012 25.478 7.69985 25.3067 7.69909C25.0673 7.69825 24.8281 7.69952 24.5888 7.70135C24.4525 7.70161 24.3163 7.70187 24.1759 7.70214C23.8066 7.714 23.8066 7.714 23.5157 8.07193ZM21.7657 11.4626C21.4736 11.9653 21.4736 11.9653 21.547 12.8844C25.6256 12.8844 29.7042 12.8844 33.9064 12.8844C33.9359 12.0289 33.9359 12.0289 33.5782 11.3532C33.0201 10.9917 32.548 10.9775 31.9058 10.9809C31.8056 10.9801 31.7054 10.9794 31.6021 10.9786C31.272 10.9766 30.942 10.977 30.6119 10.9776C30.3817 10.9771 30.1515 10.9766 29.9213 10.9759C29.4393 10.9749 28.9572 10.9752 28.4752 10.9763C27.8583 10.9775 27.2414 10.9753 26.6245 10.9721C26.1493 10.9701 25.674 10.9701 25.1988 10.9708C24.9714 10.9708 24.744 10.9701 24.5166 10.9688C24.1982 10.9671 23.88 10.9683 23.5617 10.9702C23.4683 10.9691 23.3749 10.9681 23.2787 10.967C22.6513 10.9747 22.2761 11.0896 21.7657 11.4626ZM20.0502 15.5283C19.8845 15.7585 19.8404 15.9195 19.7927 16.1982C19.7671 16.3434 19.7671 16.3434 19.7409 16.4915C19.7233 16.6005 19.7057 16.7096 19.6876 16.8219C19.6675 16.944 19.6474 17.0661 19.6266 17.1919C19.5827 17.4617 19.5393 17.7316 19.4963 18.0015C19.1206 20.3455 18.7077 22.693 17.172 24.5876C17.1016 24.6769 17.0313 24.7663 16.9588 24.8584C15.8824 26.1437 14.5668 26.8439 13.0691 27.5356C12.1924 27.9432 11.3947 28.3974 10.6095 28.9626C10.5318 29.0181 10.4541 29.0737 10.3741 29.1309C9.58212 29.7513 9.03098 30.6293 8.75011 31.5876C8.75011 31.7319 8.75011 31.8763 8.75011 32.0251C21.2746 32.0251 33.7992 32.0251 46.7032 32.0251C46.3837 30.4274 45.6247 29.5546 44.3042 28.628C43.6528 28.2108 42.9904 27.8727 42.2872 27.5544C39.7457 26.3974 37.8334 24.6077 36.8329 21.97C36.2903 20.4871 36.059 18.9664 35.8518 17.4069C35.8412 17.33 35.8306 17.2532 35.8196 17.174C35.7906 16.9629 35.7628 16.7516 35.7351 16.5403C35.6363 16.0702 35.4958 15.6626 35.1355 15.3334C35.066 15.2922 34.9965 15.2511 34.9249 15.2087C34.8228 15.1452 34.8228 15.1452 34.7186 15.0805C33.9599 14.7433 33.2286 14.7117 32.4119 14.7138C32.2415 14.7129 32.2415 14.7129 32.0677 14.7121C31.6942 14.7106 31.3207 14.7107 30.9473 14.7109C30.6863 14.7105 30.4253 14.71 30.1643 14.7095C29.618 14.7087 29.0718 14.7087 28.5255 14.7093C27.8272 14.7099 27.129 14.7081 26.4307 14.7055C25.8919 14.7039 25.3531 14.7038 24.8143 14.7042C24.557 14.7041 24.2996 14.7035 24.0423 14.7024C23.6816 14.7011 23.321 14.7018 22.9604 14.7031C22.8552 14.7022 22.7501 14.7014 22.6417 14.7006C21.703 14.7078 20.7531 14.8566 20.0502 15.5283ZM8.85948 33.8844C9.4455 35.8378 10.6965 37.0788 12.4689 38.0407C14.0588 38.8321 15.7697 39.1097 17.5266 39.2481C17.6974 39.2618 17.6974 39.2618 17.8716 39.2758C19.0479 39.3676 20.2246 39.4296 21.4034 39.4762C21.5174 39.4808 21.6314 39.4854 21.7489 39.49C27.3269 39.7064 32.956 39.6903 38.5206 39.2028C38.6529 39.1917 38.7852 39.1806 38.9215 39.1691C41.366 38.9271 43.8067 38.0134 45.5001 36.1813C45.983 35.5396 46.5939 34.7169 46.5939 33.8844C34.1415 33.8844 21.6892 33.8844 8.85948 33.8844Z" fill="black"/>
<path d="M34.8907 44.0561C35.1765 44.2291 35.2906 44.3669 35.3859 44.6883C35.5398 45.4028 35.6533 46.121 35.7597 46.8439C35.7788 46.9729 35.7979 47.102 35.8176 47.2349C35.8577 47.5067 35.8976 47.7785 35.9373 48.0503C35.9978 48.463 36.0597 48.8755 36.1216 49.288C36.1606 49.5534 36.1994 49.8188 36.2382 50.0842C36.2659 50.2667 36.2659 50.2667 36.2942 50.453C36.5374 52.1482 36.5374 52.1482 36.4219 52.8061C36.0839 53.2172 36.0839 53.2172 35.7657 53.3017C35.6574 53.3001 35.6574 53.3001 35.5469 53.2983C35.4748 53.2995 35.4026 53.3006 35.3282 53.3017C35.0041 53.2156 34.8832 53.0655 34.6719 52.8061C34.5953 52.5344 34.5444 52.2928 34.5057 52.0157C34.4868 51.8952 34.4868 51.8952 34.4674 51.7722C34.4396 51.594 34.4127 51.4156 34.3865 51.2371C34.3416 50.9319 34.2943 50.6271 34.2467 50.3222C34.1591 49.7584 34.0749 49.1941 33.992 48.6295C33.9402 48.2789 33.8873 47.9284 33.8343 47.5779C33.8009 47.3511 33.7675 47.1242 33.7341 46.8973C33.7184 46.7945 33.7027 46.6917 33.6865 46.5858C33.4247 44.7687 33.4247 44.7687 33.7423 44.1997C34.1325 43.9948 34.4595 43.9719 34.8907 44.0561Z" fill="black"/>
<path d="M21.8749 44.0563C22.1962 44.1999 22.1962 44.1999 22.4218 44.4938C22.5356 45.4148 22.3508 46.3688 22.218 47.2786C22.1967 47.4276 22.1754 47.5766 22.1541 47.7256C22.1097 48.0355 22.0647 48.3452 22.0192 48.6549C21.9612 49.0508 21.905 49.4469 21.8494 49.8431C21.8061 50.1499 21.7616 50.4565 21.7168 50.763C21.6854 50.9796 21.655 51.1964 21.6247 51.4132C21.605 51.545 21.5853 51.6768 21.565 51.8127C21.5399 51.9861 21.5399 51.9861 21.5142 52.1631C21.4049 52.6113 21.2151 52.9192 20.8905 53.2438C20.1095 53.3194 20.1095 53.3194 19.7851 53.0584C19.4087 52.6002 19.5361 52.0593 19.578 51.4938C19.6316 50.9607 19.7041 50.4316 19.7818 49.9015C19.8032 49.7526 19.8244 49.6038 19.8457 49.4549C19.89 49.1457 19.9351 48.8366 19.9806 48.5276C20.0387 48.1326 20.0948 47.7373 20.1504 47.342C20.1938 47.0357 20.2382 46.7295 20.283 46.4234C20.3144 46.2073 20.3448 45.991 20.3751 45.7747C20.3948 45.6433 20.4145 45.5118 20.4348 45.3763C20.4516 45.261 20.4683 45.1457 20.4856 45.0269C20.5689 44.6861 20.6878 44.4509 20.8905 44.1657C21.2296 43.9961 21.5007 44.0246 21.8749 44.0563Z" fill="black"/>
<path d="M27.8869 44.0059C28.2206 44.0814 28.337 44.2258 28.5469 44.4938C28.5902 44.7779 28.6069 45.0158 28.6036 45.2996C28.6043 45.38 28.6051 45.4604 28.6059 45.5433C28.6078 45.8087 28.6065 46.074 28.6051 46.3395C28.6053 46.5242 28.6058 46.7089 28.6063 46.8936C28.607 47.2805 28.606 47.6673 28.604 48.0542C28.6015 48.55 28.6029 49.0458 28.6055 49.5416C28.6071 49.9229 28.6066 50.3042 28.6055 50.6855C28.6052 50.8683 28.6056 51.0511 28.6066 51.2339C28.6077 51.4895 28.606 51.7449 28.6036 52.0005C28.6044 52.076 28.6053 52.1514 28.6062 52.2292C28.5997 52.5971 28.5686 52.7787 28.3383 53.0718C28.022 53.3095 27.8259 53.3062 27.4425 53.2869C27.1217 53.2204 26.9836 53.0675 26.7969 52.8063C26.672 52.4315 26.6729 52.1421 26.6717 51.7468C26.6713 51.6729 26.671 51.5991 26.6706 51.523C26.6695 51.2788 26.6693 51.0347 26.6692 50.7905C26.6689 50.6207 26.6685 50.4508 26.6681 50.2809C26.6674 49.9247 26.6672 49.5685 26.6673 49.2123C26.6673 48.7564 26.6658 48.3005 26.6639 47.8446C26.6627 47.4936 26.6625 47.1427 26.6626 46.7918C26.6624 46.6237 26.6619 46.4557 26.6611 46.2876C26.66 46.0523 26.6603 45.8169 26.661 45.5816C26.6608 45.4478 26.6607 45.314 26.6605 45.1761C26.6875 44.8232 26.7399 44.5861 26.9063 44.275C27.2579 44.0406 27.4723 44.0234 27.8869 44.0059Z" fill="black"/>
<path d="M16.7343 42.853C17.0532 43.0713 17.151 43.2153 17.2534 43.5873C17.2876 44.0302 17.1895 44.2963 17.0269 44.709C16.9988 44.7818 16.9706 44.8546 16.9416 44.9296C16.8489 45.1677 16.7541 45.4049 16.6591 45.6421C16.5941 45.8072 16.5292 45.9723 16.4645 46.1375C16.3308 46.4778 16.1961 46.8176 16.0608 47.1572C15.8971 47.5686 15.7367 47.9812 15.5778 48.3945C15.4612 48.6976 15.3434 49.0002 15.2253 49.3026C15.1697 49.4456 15.1145 49.5886 15.0597 49.7319C14.9833 49.931 14.905 50.1294 14.8266 50.3277C14.783 50.4398 14.7393 50.5519 14.6943 50.6674C14.5332 50.9724 14.4068 51.1044 14.1093 51.2749C13.6285 51.3449 13.4234 51.3309 13.0223 51.0493C12.7331 50.6374 12.7526 50.4615 12.7968 49.9624C12.8987 49.6072 13.0357 49.2695 13.1766 48.9281C13.216 48.8294 13.2555 48.7308 13.2961 48.6292C13.4224 48.3143 13.5504 48.0002 13.6786 47.6861C13.8031 47.3772 13.9273 47.0682 14.0515 46.7592C14.1334 46.5558 14.2157 46.3526 14.2984 46.1495C14.496 45.6635 14.6886 45.1768 14.8688 44.6841C14.9022 44.5939 14.9357 44.5038 14.9701 44.4109C15.0319 44.2429 15.0924 44.0745 15.1512 43.9055C15.4492 43.1008 15.857 42.7254 16.7343 42.853Z" fill="black"/>
<path d="M40.0313 42.8529C40.6859 43.2156 40.8457 43.8514 41.0947 44.5149C41.1415 44.6355 41.1882 44.7561 41.2364 44.8804C41.3854 45.2658 41.5321 45.6521 41.6788 46.0385C41.7778 46.296 41.877 46.5535 41.9764 46.8109C42.2008 47.3931 42.4236 47.9759 42.6457 48.5589C42.7977 48.9511 42.9573 49.3401 43.1191 49.7284C43.2476 50.0859 43.2691 50.3546 43.2032 50.7279C42.9197 51.1317 42.7612 51.2561 42.2735 51.3432C41.8115 51.2607 41.6111 51.0972 41.3438 50.7279C41.1519 50.348 41.0038 49.9545 40.8551 49.556C40.811 49.4414 40.7669 49.3269 40.7216 49.2089C40.5813 48.843 40.443 48.4764 40.3048 48.1098C40.2119 47.867 40.1189 47.6242 40.0258 47.3815C39.807 46.8104 39.5918 46.238 39.3778 45.665C39.2783 45.4018 39.1757 45.1402 39.0713 44.8789C39.0193 44.7448 38.9673 44.6107 38.9137 44.4726C38.8697 44.3629 38.8258 44.2531 38.7806 44.14C38.7018 43.7539 38.7796 43.5375 38.9376 43.1811C39.271 42.8238 39.5542 42.7848 40.0313 42.8529Z" fill="black"/>
<path d="M44.7344 41.4311C44.9584 41.5553 44.9584 41.5553 45.1941 41.7195C45.2804 41.7792 45.3667 41.8389 45.4556 41.9004C45.5424 41.9621 45.6293 42.0238 45.7188 42.0874C45.7978 42.1434 45.8768 42.1993 45.9582 42.257C46.196 42.4271 46.4327 42.5987 46.6689 42.771C47.1591 43.1278 47.649 43.4844 48.1476 43.8293C48.218 43.8782 48.2883 43.9272 48.3608 43.9776C48.4917 44.0685 48.6231 44.1586 48.7551 44.2478C49.0823 44.4761 49.3138 44.6538 49.4375 45.0405C49.4293 45.5008 49.3994 45.7267 49.0889 46.0727C48.7124 46.2819 48.5521 46.2981 48.125 46.2436C47.8189 46.0858 47.5516 45.8835 47.2773 45.6762C47.1975 45.6178 47.1176 45.5593 47.0354 45.4991C46.8656 45.3748 46.6963 45.2499 46.5274 45.1244C46.2646 44.9303 45.9995 44.7399 45.7333 44.5504C45.5598 44.4267 45.3863 44.3029 45.2129 44.1792C45.1327 44.122 45.0525 44.0649 44.9699 44.0061C43.5789 43.004 43.5789 43.004 43.4082 42.4633C43.4233 42.0478 43.4936 41.8634 43.75 41.5405C44.103 41.364 44.3413 41.3874 44.7344 41.4311Z" fill="black"/>
<path d="M12.0312 41.4311C12.3597 41.6558 12.4505 41.8113 12.5713 42.1898C12.5797 42.604 12.4895 42.7369 12.25 43.0717C11.9723 43.3182 11.9723 43.3182 11.6348 43.5707C11.5735 43.6168 11.5122 43.6629 11.449 43.7103C10.7768 44.2116 10.091 44.6943 9.40283 45.1733C9.14159 45.3553 8.88537 45.5404 8.63037 45.7313C8.53675 45.8011 8.44313 45.8709 8.34668 45.9428C8.231 46.0316 8.231 46.0316 8.11298 46.1222C7.79779 46.2829 7.568 46.2759 7.21875 46.2436C6.91113 46.0727 6.91113 46.0727 6.67187 45.8061C6.57597 45.448 6.51591 45.1861 6.63043 44.8281C6.84231 44.5118 7.12699 44.3275 7.4375 44.1176C7.57585 44.0215 7.71413 43.9254 7.85236 43.8292C7.92643 43.778 8.0005 43.7267 8.07682 43.6739C8.58059 43.3218 9.07553 42.9571 9.57223 42.5951C9.98054 42.2991 10.3914 42.0068 10.8068 41.7207C10.8847 41.6668 10.9627 41.6128 11.043 41.5573C11.3905 41.3603 11.6447 41.3553 12.0312 41.4311Z" fill="black"/>
</svg>
