<svg width="56" height="57" viewBox="0 0 56 57" fill="none" xmlns="http://www.w3.org/2000/svg">
<path d="M25.03 3.75084C25.1615 3.74979 25.2929 3.74874 25.4283 3.74766C25.6416 3.74696 25.6416 3.74696 25.8592 3.74625C26.0067 3.74562 26.1543 3.74499 26.3018 3.74436C26.6112 3.74321 26.9206 3.74257 27.23 3.74219C27.6253 3.74159 28.0207 3.73896 28.416 3.73585C28.7209 3.73381 29.0257 3.73324 29.3306 3.73308C29.5469 3.73259 29.7632 3.73055 29.9794 3.72849C30.1119 3.72881 30.2444 3.72914 30.3809 3.72948C30.4969 3.72908 30.613 3.72868 30.7326 3.72827C31.2914 3.79633 31.7181 4.03321 32.0743 4.46573C32.1268 4.52749 32.1792 4.58924 32.2333 4.65287C32.6649 5.28987 32.624 5.91949 32.6336 6.66733C32.6667 7.06446 32.6667 7.06446 32.966 7.29538C33.0597 7.35869 33.1535 7.42199 33.2501 7.48722C33.7267 8.12645 33.797 8.66728 33.797 9.44229C33.819 9.9946 33.819 9.9946 34.1093 10.4369C34.2806 10.5402 34.4553 10.6381 34.6327 10.7304C35.1708 11.0378 35.4684 11.5333 35.673 12.1049C35.7601 12.4935 35.7809 12.8195 35.7793 13.2136C35.7612 13.958 35.7612 13.958 36.0571 14.6137C36.2826 14.7708 36.2826 14.7708 36.5237 14.8982C37.0602 15.2201 37.305 15.8474 37.463 16.4299C37.5833 16.9881 37.6411 17.558 37.714 18.1239C38.0853 20.8458 38.694 23.5823 40.9247 25.3991C41.5224 25.8436 42.1595 26.1719 42.8255 26.4983C45.057 27.5921 47.4231 28.8506 48.3439 31.331C48.8979 33.2281 48.677 35.331 47.7456 37.0567C46.4175 39.3495 43.9788 40.7399 41.4872 41.438C39.803 41.8704 38.0405 41.9404 36.3126 42.0497C36.2236 42.0556 36.1346 42.0615 36.0429 42.0676C14.9779 43.4357 14.9779 43.4357 9.28331 38.9667C7.89881 37.6679 6.93022 36.017 6.85399 34.0974C6.82352 32.0455 7.14097 30.566 8.58605 29.0273C9.72141 27.9513 11.0206 27.2857 12.4293 26.6322C14.5884 25.6191 16.0608 24.2049 16.9259 21.9657C17.3268 20.7563 17.5411 19.4979 17.7107 18.2376C17.7281 18.1121 17.7455 17.9867 17.7635 17.8574C17.7966 17.6133 17.8276 17.3688 17.856 17.1241C17.9643 16.3234 18.1798 15.6641 18.7032 15.0341C18.9464 14.8767 18.9464 14.8767 19.1749 14.7607C19.4283 14.594 19.5574 14.4776 19.6205 14.176C19.6524 13.8356 19.6592 13.497 19.664 13.1554C19.6779 12.2409 19.8578 11.5661 20.4942 10.8847C20.7417 10.646 20.9136 10.5407 21.2398 10.413C21.3412 10.3498 21.4425 10.2867 21.547 10.2216C21.6302 9.86025 21.6302 9.86025 21.6085 9.44913C21.6205 8.69852 21.7439 8.09614 22.2032 7.48722C22.2984 7.42278 22.3936 7.35835 22.4916 7.29196C22.7896 7.0625 22.7896 7.0625 22.8121 6.65494C22.8138 6.50399 22.8136 6.35301 22.8116 6.20206C22.8296 5.53242 22.849 4.95427 23.297 4.42472C23.8401 3.93477 24.2952 3.75558 25.03 3.75084ZM24.7189 5.73722C24.7189 6.06206 24.7189 6.3869 24.7189 6.72159C26.704 6.72159 28.6892 6.72159 30.7345 6.72159C30.7345 6.39675 30.7345 6.0719 30.7345 5.73722C30.5521 5.55487 30.3327 5.6139 30.0823 5.61369C29.9666 5.61334 29.8509 5.613 29.7317 5.61264C29.6058 5.61287 29.4799 5.61309 29.3502 5.61331C29.222 5.61321 29.0937 5.61311 28.9616 5.613C28.6898 5.61292 28.418 5.61313 28.1462 5.61358C27.7285 5.61417 27.3108 5.61359 26.8931 5.61289C26.6298 5.61296 26.3665 5.6131 26.1031 5.61331C25.9772 5.61309 25.8514 5.61287 25.7216 5.61264C25.6059 5.61299 25.4903 5.61333 25.371 5.61369C25.2686 5.61378 25.1662 5.61386 25.0607 5.61395C24.8299 5.60193 24.8299 5.60193 24.7189 5.73722ZM23.5157 8.90909C23.5157 9.27003 23.5157 9.63097 23.5157 10.0028C26.295 10.0028 29.0742 10.0028 31.9376 10.0028C31.9376 9.6419 31.9376 9.28097 31.9376 8.90909C31.5333 8.5048 31.4205 8.53957 30.8646 8.53851C30.7893 8.53793 30.7141 8.53736 30.6365 8.53677C30.3877 8.53532 30.139 8.53628 29.8902 8.53739C29.7174 8.53717 29.5445 8.53685 29.3717 8.53644C29.0094 8.53595 28.6472 8.53666 28.2849 8.53819C27.8204 8.54006 27.3559 8.53898 26.8913 8.53702C26.5344 8.53583 26.1775 8.53621 25.8206 8.53706C25.6493 8.53728 25.478 8.53701 25.3067 8.53624C25.0673 8.53541 24.8281 8.53668 24.5888 8.53851C24.4525 8.53877 24.3163 8.53903 24.1759 8.5393C23.8066 8.55115 23.8066 8.55115 23.5157 8.90909ZM21.7657 12.2997C21.4736 12.8024 21.4736 12.8024 21.547 13.7216C25.6256 13.7216 29.7042 13.7216 33.9064 13.7216C33.9359 12.8661 33.9359 12.8661 33.5782 12.1903C33.0201 11.8289 32.548 11.8146 31.9058 11.818C31.8056 11.8173 31.7054 11.8165 31.6021 11.8157C31.272 11.8138 30.942 11.8142 30.6119 11.8148C30.3817 11.8143 30.1515 11.8137 29.9213 11.8131C29.4393 11.8121 28.9572 11.8123 28.4752 11.8134C27.8583 11.8147 27.2414 11.8125 26.6245 11.8093C26.1493 11.8073 25.674 11.8073 25.1988 11.8079C24.9714 11.8079 24.744 11.8073 24.5166 11.8059C24.1982 11.8043 23.88 11.8055 23.5617 11.8073C23.4683 11.8063 23.3749 11.8052 23.2787 11.8041C22.6513 11.8118 22.2761 11.9268 21.7657 12.2997ZM20.0502 16.3655C19.8845 16.5957 19.8404 16.7567 19.7927 17.0353C19.7671 17.1805 19.7671 17.1805 19.7409 17.3286C19.7233 17.4377 19.7057 17.5467 19.6876 17.6591C19.6675 17.7812 19.6474 17.9033 19.6266 18.0291C19.5827 18.2989 19.5393 18.5687 19.4963 18.8387C19.1206 21.1827 18.7077 23.5302 17.172 25.4247C17.1016 25.5141 17.0313 25.6035 16.9588 25.6956C15.8824 26.9809 14.5668 27.6811 13.0691 28.3728C12.1924 28.7803 11.3947 29.2346 10.6095 29.7997C10.5318 29.8553 10.4541 29.9108 10.3741 29.9681C9.58212 30.5884 9.03098 31.4664 8.75011 32.4247C8.75011 32.5691 8.75011 32.7135 8.75011 32.8622C21.2746 32.8622 33.7992 32.8622 46.7032 32.8622C46.3837 31.2646 45.6247 30.3918 44.3042 29.4652C43.6528 29.0479 42.9904 28.7099 42.2872 28.3915C39.7457 27.2346 37.8334 25.4449 36.8329 22.8072C36.2903 21.3242 36.059 19.8036 35.8518 18.244C35.8412 18.1672 35.8306 18.0903 35.8196 18.0112C35.7906 17.8 35.7628 17.5887 35.7351 17.3774C35.6363 16.9074 35.4958 16.4997 35.1355 16.1706C35.066 16.1294 34.9965 16.0882 34.9249 16.0458C34.8228 15.9824 34.8228 15.9824 34.7186 15.9176C33.9599 15.5805 33.2286 15.5488 32.4119 15.5509C32.2415 15.5501 32.2415 15.5501 32.0677 15.5492C31.6942 15.5477 31.3207 15.5478 30.9473 15.5481C30.6863 15.5476 30.4253 15.5472 30.1643 15.5466C29.618 15.5458 29.0718 15.5459 28.5255 15.5464C27.8272 15.5471 27.129 15.5452 26.4307 15.5427C25.8919 15.5411 25.3531 15.541 24.8143 15.5413C24.557 15.5413 24.2996 15.5407 24.0423 15.5396C23.6816 15.5382 23.321 15.539 22.9604 15.5402C22.8552 15.5394 22.7501 15.5386 22.6417 15.5377C21.703 15.5449 20.7531 15.6937 20.0502 16.3655ZM8.85948 34.7216C9.4455 36.675 10.6965 37.916 12.4689 38.8778C14.0588 39.6693 15.7697 39.9469 17.5266 40.0852C17.6974 40.099 17.6974 40.099 17.8716 40.113C19.0479 40.2047 20.2246 40.2668 21.4034 40.3134C21.5174 40.3179 21.6314 40.3225 21.7489 40.3272C27.3269 40.5436 32.956 40.5275 38.5206 40.04C38.6529 40.0288 38.7852 40.0177 38.9215 40.0063C41.366 39.7643 43.8067 38.8505 45.5001 37.0185C45.983 36.3767 46.5939 35.554 46.5939 34.7216C34.1415 34.7216 21.6892 34.7216 8.85948 34.7216Z" fill="black"/>
<path d="M34.8907 44.8935C35.1765 45.0665 35.2906 45.2043 35.3859 45.5257C35.5398 46.2402 35.6533 46.9584 35.7597 47.6813C35.7788 47.8103 35.7979 47.9394 35.8176 48.0723C35.8577 48.3441 35.8976 48.6159 35.9373 48.8877C35.9978 49.3004 36.0597 49.7129 36.1216 50.1254C36.1606 50.3908 36.1994 50.6562 36.2382 50.9216C36.2659 51.1041 36.2659 51.1041 36.2942 51.2904C36.5374 52.9856 36.5374 52.9856 36.4219 53.6435C36.0839 54.0546 36.0839 54.0546 35.7657 54.1391C35.6574 54.1375 35.6574 54.1375 35.5469 54.1357C35.4748 54.1369 35.4026 54.138 35.3282 54.1391C35.0041 54.0531 34.8832 53.9029 34.6719 53.6435C34.5953 53.3718 34.5444 53.1302 34.5057 52.8531C34.4868 52.7326 34.4868 52.7326 34.4674 52.6096C34.4396 52.4314 34.4127 52.253 34.3865 52.0745C34.3416 51.7693 34.2943 51.4645 34.2467 51.1596C34.1591 50.5958 34.0749 50.0315 33.992 49.4669C33.9402 49.1163 33.8873 48.7658 33.8343 48.4153C33.8009 48.1885 33.7675 47.9616 33.7341 47.7347C33.7184 47.6319 33.7027 47.5291 33.6865 47.4232C33.4247 45.6061 33.4247 45.6061 33.7423 45.0371C34.1325 44.8322 34.4595 44.8093 34.8907 44.8935Z" fill="black"/>
<path d="M21.8749 44.8935C22.1962 45.037 22.1962 45.037 22.4218 45.331C22.5356 46.252 22.3508 47.206 22.218 48.1157C22.1967 48.2647 22.1754 48.4138 22.1541 48.5628C22.1097 48.8726 22.0647 49.1824 22.0192 49.4921C21.9612 49.8879 21.905 50.284 21.8494 50.6803C21.8061 50.987 21.7616 51.2936 21.7168 51.6002C21.6854 51.8168 21.655 52.0336 21.6247 52.2503C21.605 52.3822 21.5853 52.514 21.565 52.6498C21.5399 52.8233 21.5399 52.8233 21.5142 53.0002C21.4049 53.4485 21.2151 53.7564 20.8905 54.081C20.1095 54.1565 20.1095 54.1565 19.7851 53.8956C19.4087 53.4374 19.5361 52.8965 19.578 52.331C19.6316 51.7978 19.7041 51.2687 19.7818 50.7386C19.8032 50.5898 19.8244 50.4409 19.8457 50.2921C19.89 49.9829 19.9351 49.6738 19.9806 49.3647C20.0387 48.9697 20.0948 48.5745 20.1504 48.1791C20.1938 47.8728 20.2382 47.5667 20.283 47.2606C20.3144 47.0445 20.3448 46.8282 20.3751 46.6119C20.3948 46.4804 20.4145 46.3489 20.4348 46.2135C20.4516 46.0982 20.4683 45.9829 20.4856 45.8641C20.5689 45.5232 20.6878 45.288 20.8905 45.0028C21.2296 44.8333 21.5007 44.8617 21.8749 44.8935Z" fill="black"/>
<path d="M27.8869 44.8433C28.2206 44.9188 28.337 45.0632 28.5469 45.3312C28.5902 45.6153 28.6069 45.8532 28.6036 46.137C28.6043 46.2174 28.6051 46.2978 28.6059 46.3807C28.6078 46.6461 28.6065 46.9114 28.6051 47.1769C28.6053 47.3616 28.6058 47.5463 28.6063 47.731C28.607 48.1179 28.606 48.5047 28.604 48.8916C28.6015 49.3874 28.6029 49.8832 28.6055 50.379C28.6071 50.7603 28.6066 51.1416 28.6055 51.5229C28.6052 51.7057 28.6056 51.8886 28.6066 52.0714C28.6077 52.3269 28.606 52.5823 28.6036 52.8379C28.6044 52.9134 28.6053 52.9888 28.6062 53.0666C28.5997 53.4345 28.5686 53.6161 28.3383 53.9092C28.022 54.1469 27.8259 54.1436 27.4425 54.1243C27.1217 54.0578 26.9836 53.9049 26.7969 53.6437C26.672 53.2689 26.6729 52.9795 26.6717 52.5842C26.6713 52.5103 26.671 52.4365 26.6706 52.3604C26.6695 52.1162 26.6693 51.8721 26.6692 51.6279C26.6689 51.4581 26.6685 51.2882 26.6681 51.1183C26.6674 50.7621 26.6672 50.4059 26.6673 50.0497C26.6673 49.5938 26.6658 49.1379 26.6639 48.682C26.6627 48.331 26.6625 47.9801 26.6626 47.6292C26.6624 47.4611 26.6619 47.2931 26.6611 47.125C26.66 46.8897 26.6603 46.6543 26.661 46.419C26.6608 46.2852 26.6607 46.1514 26.6605 46.0135C26.6875 45.6606 26.7399 45.4235 26.9063 45.1124C27.2579 44.878 27.4723 44.8608 27.8869 44.8433Z" fill="black"/>
<path d="M16.7343 43.6905C17.0532 43.9087 17.151 44.0527 17.2534 44.4247C17.2876 44.8676 17.1895 45.1337 17.0269 45.5464C16.9988 45.6192 16.9706 45.692 16.9416 45.767C16.8489 46.0051 16.7541 46.2423 16.6591 46.4795C16.5941 46.6446 16.5292 46.8097 16.4645 46.9749C16.3308 47.3152 16.1961 47.655 16.0608 47.9946C15.8971 48.406 15.7367 48.8186 15.5778 49.2319C15.4612 49.535 15.3434 49.8376 15.2253 50.1401C15.1697 50.283 15.1145 50.426 15.0597 50.5693C14.9833 50.7684 14.905 50.9668 14.8266 51.1651C14.783 51.2772 14.7393 51.3893 14.6943 51.5048C14.5332 51.8098 14.4068 51.9419 14.1093 52.1123C13.6285 52.1823 13.4234 52.1683 13.0223 51.8867C12.7331 51.4748 12.7526 51.2989 12.7968 50.7998C12.8987 50.4446 13.0357 50.1069 13.1766 49.7655C13.216 49.6668 13.2555 49.5682 13.2961 49.4666C13.4224 49.1517 13.5504 48.8376 13.6786 48.5235C13.8031 48.2146 13.9273 47.9056 14.0515 47.5966C14.1334 47.3932 14.2157 47.19 14.2984 46.9869C14.496 46.5009 14.6886 46.0142 14.8688 45.5215C14.9022 45.4313 14.9357 45.3412 14.9701 45.2483C15.0319 45.0803 15.0924 44.9119 15.1512 44.7429C15.4492 43.9382 15.857 43.5628 16.7343 43.6905Z" fill="black"/>
<path d="M40.0313 43.6903C40.6859 44.053 40.8457 44.6888 41.0947 45.3523C41.1415 45.4729 41.1882 45.5935 41.2364 45.7178C41.3854 46.1032 41.5321 46.4895 41.6788 46.8759C41.7778 47.1334 41.877 47.3909 41.9764 47.6483C42.2008 48.2305 42.4236 48.8133 42.6457 49.3963C42.7977 49.7885 42.9573 50.1775 43.1191 50.5658C43.2476 50.9233 43.2691 51.192 43.2032 51.5653C42.9197 51.9691 42.7612 52.0935 42.2735 52.1806C41.8115 52.0981 41.6111 51.9346 41.3438 51.5653C41.1519 51.1854 41.0038 50.7919 40.8551 50.3934C40.811 50.2788 40.7669 50.1643 40.7216 50.0463C40.5813 49.6804 40.443 49.3138 40.3048 48.9472C40.2119 48.7044 40.1189 48.4616 40.0258 48.2189C39.807 47.6478 39.5918 47.0754 39.3778 46.5024C39.2783 46.2392 39.1757 45.9776 39.0713 45.7163C39.0193 45.5822 38.9673 45.4482 38.9137 45.31C38.8697 45.2003 38.8258 45.0905 38.7806 44.9774C38.7018 44.5913 38.7796 44.3749 38.9376 44.0185C39.271 43.6612 39.5542 43.6222 40.0313 43.6903Z" fill="black"/>
<path d="M44.7344 42.2685C44.9584 42.3927 44.9584 42.3927 45.1941 42.5569C45.2804 42.6166 45.3667 42.6763 45.4556 42.7378C45.5424 42.7995 45.6293 42.8612 45.7188 42.9248C45.7978 42.9808 45.8768 43.0367 45.9582 43.0944C46.196 43.2645 46.4327 43.4361 46.6689 43.6084C47.1591 43.9652 47.649 44.3218 48.1476 44.6667C48.218 44.7156 48.2883 44.7646 48.3608 44.815C48.4917 44.9059 48.6231 44.996 48.7551 45.0852C49.0823 45.3135 49.3138 45.4912 49.4375 45.8779C49.4293 46.3382 49.3994 46.5641 49.0889 46.9101C48.7124 47.1193 48.5521 47.1355 48.125 47.081C47.8189 46.9232 47.5516 46.7209 47.2773 46.5136C47.1975 46.4552 47.1176 46.3967 47.0354 46.3365C46.8656 46.2122 46.6963 46.0873 46.5274 45.9618C46.2646 45.7677 45.9995 45.5773 45.7333 45.3878C45.5598 45.2641 45.3863 45.1403 45.2129 45.0166C45.1327 44.9594 45.0525 44.9023 44.9699 44.8435C43.5789 43.8414 43.5789 43.8414 43.4082 43.3007C43.4233 42.8852 43.4936 42.7008 43.75 42.3779C44.103 42.2014 44.3413 42.2248 44.7344 42.2685Z" fill="black"/>
<path d="M12.0312 42.2685C12.3597 42.4932 12.4505 42.6487 12.5713 43.0272C12.5797 43.4414 12.4895 43.5743 12.25 43.9091C11.9723 44.1556 11.9723 44.1556 11.6348 44.4081C11.5735 44.4542 11.5122 44.5003 11.449 44.5477C10.7768 45.049 10.091 45.5317 9.40283 46.0107C9.14159 46.1927 8.88537 46.3778 8.63037 46.5687C8.53675 46.6385 8.44313 46.7083 8.34668 46.7802C8.231 46.869 8.231 46.869 8.11298 46.9596C7.79779 47.1203 7.568 47.1133 7.21875 47.081C6.91113 46.9101 6.91113 46.9101 6.67187 46.6435C6.57597 46.2854 6.51591 46.0235 6.63043 45.6655C6.84231 45.3492 7.12699 45.1649 7.4375 44.955C7.57585 44.8589 7.71413 44.7628 7.85236 44.6666C7.92643 44.6154 8.0005 44.5641 8.07682 44.5113C8.58059 44.1592 9.07553 43.7945 9.57223 43.4325C9.98054 43.1365 10.3914 42.8442 10.8068 42.5581C10.8847 42.5042 10.9627 42.4502 11.043 42.3947C11.3905 42.1977 11.6447 42.1927 12.0312 42.2685Z" fill="black"/>
</svg>
