<svg width="56" height="57" viewBox="0 0 56 57" fill="none" xmlns="http://www.w3.org/2000/svg">
<g clip-path="url(#clip0_28_596)">
<path d="M26.7628 1.60545C26.8515 1.60438 26.9403 1.60331 27.0318 1.60221C28.9964 1.58339 30.8923 1.60245 32.8126 2.06902C32.9561 2.10243 32.9561 2.10243 33.1026 2.13652C38.3704 3.3929 43.0051 6.84017 45.881 11.4046C46.7105 12.7572 47.3848 14.133 47.9063 15.6315C47.9524 15.7631 47.9524 15.7631 47.9993 15.8974C49.7792 21.1016 49.3259 26.8501 47.0313 31.819C46.5065 32.8783 45.9135 33.8793 45.1942 34.8183C45.0305 35.0976 45.0305 35.0976 45.1211 35.4147C45.3053 35.8078 45.5137 36.1793 45.7393 36.5495C45.8386 36.7153 45.9377 36.8812 46.0367 37.0472C46.1179 37.1831 46.1179 37.1831 46.2007 37.3218C46.5259 37.8704 46.8431 38.4235 47.1612 38.9762C47.2309 39.0972 47.3005 39.2181 47.3723 39.3427C47.5155 39.5912 47.6587 39.8398 47.8018 40.0883C48.1462 40.6862 48.4911 41.2839 48.836 41.8815C49.2476 42.5949 49.6592 43.3083 50.0703 44.022C50.8288 45.3384 51.5901 46.6531 52.3576 47.9643C52.4179 48.0673 52.4781 48.1704 52.5402 48.2765C52.5934 48.3673 52.6465 48.458 52.7012 48.5515C52.9291 48.9475 52.983 49.1834 52.9376 49.6471C52.794 49.9616 52.794 49.9616 52.5001 50.194C51.4912 50.3471 50.4428 50.0581 49.4568 49.8591C49.282 49.8246 49.1071 49.7903 48.9323 49.7561C48.4759 49.6664 48.0198 49.5755 47.5638 49.4842C47.0968 49.391 46.6297 49.2991 46.1625 49.2071C45.2487 49.0269 44.3352 48.8453 43.4219 48.6628C43.3838 48.8579 43.3838 48.8579 43.3448 49.057C43.1806 49.7935 42.9301 50.5017 42.6871 51.2151C42.6364 51.365 42.5857 51.5148 42.5351 51.6647C42.4295 51.9768 42.3236 52.2887 42.2174 52.6006C42.0813 53.0002 41.9462 53.4 41.8114 53.7999C41.7072 54.1086 41.6026 54.4171 41.4978 54.7255C41.4478 54.8729 41.3979 55.0204 41.3481 55.1679C41.2787 55.3735 41.2086 55.5789 41.1385 55.7843C41.079 55.9594 41.079 55.9594 41.0183 56.1381C40.9063 56.4284 40.9063 56.4284 40.6876 56.7565C40.3304 56.8232 40.3304 56.8232 39.8946 56.8385C39.6806 56.8512 39.6806 56.8512 39.4622 56.8642C39.0082 56.7465 38.9623 56.7076 38.712 56.3412C38.6018 56.1533 38.4949 55.9634 38.3907 55.7721C38.3324 55.6707 38.274 55.5693 38.2139 55.4648C38.0234 55.1315 37.8376 54.7959 37.6524 54.4596C37.2158 53.6734 36.7785 52.8883 36.3194 52.1149C35.8671 51.3525 35.4221 50.5861 34.9796 49.818C34.9102 49.6977 34.8408 49.5773 34.7693 49.4532C34.4824 48.9552 34.1956 48.4571 33.9088 47.959C33.6961 47.5897 33.4833 47.2205 33.2706 46.8512C33.2027 46.7334 33.1349 46.6155 33.065 46.4941C32.7589 45.9633 32.4515 45.4335 32.1384 44.9068C32.0866 44.8197 32.0348 44.7326 31.9815 44.6428C31.8868 44.484 31.7917 44.3254 31.696 44.167C31.3907 43.6554 31.3907 43.6554 31.3907 43.4128C31.3292 43.4282 31.2677 43.4437 31.2044 43.4597C30.2366 43.6708 29.279 43.6647 28.2937 43.66C28.0007 43.6589 27.7077 43.66 27.4147 43.6614C26.4597 43.6621 25.5421 43.6475 24.6094 43.4128C24.5796 43.4915 24.5497 43.5702 24.519 43.6512C24.3928 43.9545 24.2488 44.2325 24.0882 44.5189C24.0277 44.627 23.9672 44.735 23.9049 44.8464C23.8396 44.9621 23.7744 45.0777 23.7071 45.1969C23.6389 45.3182 23.5707 45.4395 23.5005 45.5644C22.9165 46.5999 22.319 47.6273 21.7178 48.6529C21.3137 49.3426 20.9138 50.0347 20.5147 50.7272C20.4471 50.8445 20.3795 50.9618 20.3098 51.0826C19.9575 51.6938 19.6056 52.3053 19.2539 52.9169C18.0226 55.0567 18.0226 55.0567 17.459 55.9977C17.4193 56.0642 17.3796 56.1306 17.3386 56.199C17.0768 56.6329 17.0768 56.6329 16.9532 56.7565C16.6764 56.7645 16.4027 56.7666 16.126 56.7634C16.0094 56.7626 16.0094 56.7626 15.8904 56.7619C15.6978 56.7606 15.5052 56.7586 15.3126 56.7565C14.9231 55.9253 14.6229 55.0732 14.3299 54.2041C14.279 54.0543 14.2282 53.9044 14.1773 53.7546C14.0715 53.4427 13.966 53.1307 13.8607 52.8186C13.7258 52.4186 13.59 52.0189 13.4539 51.6193C13.3491 51.3109 13.2446 51.0024 13.1404 50.6938C13.0905 50.5463 13.0404 50.3988 12.9902 50.2514C12.9203 50.0461 12.8512 49.8405 12.7821 49.635C12.7426 49.5182 12.7031 49.4015 12.6624 49.2812C12.5782 48.9909 12.5782 48.9909 12.5782 48.6628C12.4822 48.6819 12.3862 48.7011 12.2873 48.7209C11.3785 48.9023 10.4695 49.0826 9.5602 49.2617C9.09285 49.3538 8.62559 49.4463 8.15851 49.5398C7.70696 49.6302 7.2552 49.7194 6.80327 49.8079C6.6317 49.8417 6.46021 49.8758 6.28881 49.9104C4.28843 50.3136 4.28843 50.3136 3.50006 50.194C3.17005 49.9331 3.08542 49.7806 3.01514 49.3703C3.08789 48.7882 3.3816 48.3554 3.6778 47.8561C3.74182 47.7456 3.80585 47.6351 3.87182 47.5213C4.07471 47.1718 4.2795 46.8235 4.48444 46.4753C4.61046 46.259 4.73636 46.0427 4.86212 45.8263C5.11483 45.3918 5.36825 44.9578 5.62219 44.524C6.23627 43.4741 6.84234 42.4195 7.44947 41.3655C7.7235 40.8899 7.99778 40.4144 8.27224 39.9391C8.40763 39.7043 8.54275 39.4694 8.67759 39.2343C8.99776 38.6768 9.32041 38.1212 9.6523 37.5707C9.80936 37.3098 9.96496 37.048 10.1205 36.7862C10.2312 36.6011 10.344 36.4173 10.4569 36.2335C10.5232 36.1217 10.5894 36.0098 10.6577 35.8945C10.7172 35.7963 10.7766 35.6982 10.8378 35.597C10.9671 35.32 10.9671 35.32 10.86 35.033C10.7422 34.8153 10.6252 34.604 10.489 34.3974C10.4448 34.3293 10.4006 34.2611 10.3551 34.1908C10.3082 34.1187 10.2613 34.0466 10.213 33.9723C7.31502 29.4169 6.17459 23.6998 7.29913 18.3885C8.64356 12.6747 11.9172 7.82564 16.8917 4.67351C19.8402 2.90869 23.2973 1.64012 26.7628 1.60545ZM14.7657 8.74089C14.6265 8.88026 14.6265 8.88026 14.4846 9.02245C14.323 9.18377 14.1594 9.34315 13.9924 9.49883C10.9907 12.3407 9.01087 16.9869 8.84181 21.0906C8.83968 21.2392 8.83817 21.3878 8.83722 21.5365C8.83645 21.617 8.83567 21.6976 8.83488 21.7806C8.8041 24.2487 8.8041 24.2487 9.18756 26.6784C9.21045 26.7708 9.23335 26.8633 9.25694 26.9585C10.1568 30.4911 11.8064 33.5663 14.391 36.147C14.5523 36.3086 14.7117 36.4722 14.8674 36.6392C18.1656 40.1228 23.2154 41.7224 27.8907 41.8815C30.8308 41.9287 33.7856 41.1954 36.4219 39.9128C36.4894 39.8804 36.5568 39.848 36.6263 39.8147C38.4768 38.9147 40.0659 37.6925 41.5156 36.2406C41.6771 36.0793 41.8407 35.9199 42.0078 35.7642C45.0199 32.9124 46.9885 28.2944 47.1583 24.1725C47.1604 24.0238 47.1619 23.8752 47.1629 23.7265C47.1641 23.6057 47.1641 23.6057 47.1652 23.4825C47.196 21.0143 47.196 21.0143 46.8126 18.5846C46.7897 18.4922 46.7668 18.3998 46.7432 18.3045C45.8433 14.772 44.1938 11.6967 41.6091 9.11601C41.4478 8.95443 41.2884 8.79085 41.1328 8.62383C38.982 6.35219 35.9044 4.84715 32.9219 4.03777C32.8039 4.00501 32.8039 4.00501 32.6835 3.9716C26.4069 2.27153 19.3766 4.20876 14.7657 8.74089ZM12.2501 36.8503C12.209 36.9215 12.1678 36.9928 12.1255 37.0662C11.4813 38.1828 10.8371 39.2994 10.1929 40.4161C10.0927 40.5897 10.0927 40.5897 9.99054 40.7668C9.85535 41.0011 9.72015 41.2354 9.58493 41.4697C9.23988 42.0676 8.89514 42.6657 8.55096 43.2641C8.41227 43.5051 8.27356 43.746 8.13483 43.987C8.06778 44.1035 8.00073 44.22 7.93164 44.3401C7.59448 44.9248 7.25447 45.5075 6.90906 46.0873C6.84267 46.1988 6.77628 46.3103 6.70788 46.4252C6.58183 46.6363 6.45535 46.8471 6.32838 47.0577C6.2727 47.1509 6.21703 47.244 6.15967 47.34C6.11054 47.4216 6.06141 47.5031 6.0108 47.5872C5.88947 47.7824 5.88947 47.7824 5.90631 48.0065C6.31653 47.9317 6.72667 47.8564 7.13678 47.7809C7.26581 47.7572 7.39485 47.7335 7.52779 47.7091C8.32262 47.562 9.11628 47.41 9.90918 47.2529C10.0416 47.2267 10.0416 47.2267 10.1766 47.2C10.6141 47.1136 11.0514 47.0266 11.4886 46.9386C11.6508 46.9065 11.8131 46.8743 11.9753 46.8423C12.0487 46.8273 12.1221 46.8122 12.1977 46.7968C13.2647 46.5878 13.2647 46.5878 13.6749 46.8189C13.9553 47.083 14.0276 47.3131 14.1477 47.6784C14.193 47.8135 14.2382 47.9485 14.2848 48.0876C14.3326 48.235 14.3804 48.3825 14.4282 48.5299C14.4784 48.681 14.5287 48.832 14.5792 48.983C14.7116 49.3801 14.8424 49.7777 14.9727 50.1754C15.1817 50.8126 15.3928 51.4491 15.6046 52.0853C15.6783 52.3077 15.7511 52.5304 15.8238 52.7531C15.8684 52.8878 15.9129 53.0225 15.9588 53.1613C15.9978 53.2803 16.0368 53.3993 16.077 53.5219C16.1708 53.8157 16.1708 53.8157 16.4063 54.0221C16.468 53.9153 16.468 53.9153 16.5309 53.8062C17.4972 52.1313 17.4972 52.1313 18.4635 50.4563C18.5303 50.3406 18.597 50.2249 18.6658 50.1056C18.801 49.8713 18.9362 49.637 19.0714 49.4027C19.4165 48.8048 19.7612 48.2067 20.1054 47.6083C20.9767 46.0943 21.8574 44.5862 22.7501 43.0846C22.4587 42.9325 22.1725 42.8108 21.8605 42.7078C18.3264 41.5196 15.1903 39.7393 12.6239 36.9917C12.4769 36.8257 12.4769 36.8257 12.2501 36.8503ZM43.2651 37.1028C43.1553 37.2165 43.0458 37.3306 42.9366 37.445C40.2435 40.1947 36.9049 41.8948 33.2501 42.9753C33.7306 43.8975 34.2292 44.8052 34.76 45.6994C35.1806 46.4083 35.5935 47.1214 36.0049 47.8356C36.0743 47.9559 36.1436 48.0762 36.215 48.2002C36.502 48.6983 36.7889 49.1965 37.0757 49.6947C37.9086 51.141 38.7436 52.5859 39.5938 54.0221C39.8204 53.7956 39.8688 53.6877 39.9658 53.3916C40.0081 53.2642 40.0081 53.2642 40.0512 53.1343C40.0811 53.0418 40.1111 52.9493 40.142 52.854C40.1738 52.7576 40.2057 52.6611 40.2385 52.5617C40.341 52.2512 40.4425 51.9404 40.544 51.6296C40.7755 50.924 41.0082 50.2188 41.2428 49.5143C41.3112 49.3081 41.3791 49.1017 41.4466 48.8952C41.5461 48.5913 41.6474 48.2882 41.7493 47.9852C41.7939 47.8468 41.7939 47.8468 41.8394 47.7057C41.883 47.5779 41.883 47.5779 41.9273 47.4476C41.952 47.3731 41.9767 47.2986 42.0022 47.2218C42.1447 46.9564 42.2852 46.8422 42.5469 46.694C42.8019 46.6763 42.8019 46.6763 43.0852 46.7111C43.1917 46.7241 43.2982 46.7372 43.4078 46.7506C44.0086 46.8433 44.604 46.9565 45.1997 47.0773C45.3334 47.1038 45.4672 47.1304 45.6049 47.1577C46.0281 47.2418 46.4511 47.3268 46.8741 47.4118C47.3006 47.4971 47.7272 47.5822 48.1538 47.667C48.4183 47.7197 48.6828 47.7727 48.9473 47.8259C49.066 47.8496 49.1847 47.8734 49.3071 47.8978C49.4118 47.9188 49.5165 47.9399 49.6243 47.9616C49.8685 48.013 49.8685 48.0129 50.0938 48.0065C49.9526 47.6357 49.7922 47.2932 49.5965 46.9482C49.541 46.8501 49.4854 46.7519 49.4282 46.6507C49.3681 46.5455 49.3081 46.4402 49.2462 46.3317C49.1831 46.2207 49.1201 46.1097 49.0551 45.9954C48.4828 44.9904 47.9001 43.9917 47.3159 42.9936C46.9081 42.2965 46.5047 41.597 46.1016 40.8971C45.9656 40.6616 45.8296 40.426 45.6936 40.1905C45.4461 39.7617 45.1995 39.3325 44.954 38.9027C44.7789 38.5964 44.6027 38.2908 44.4268 37.985C44.3295 37.8137 44.3295 37.8137 44.2303 37.639C44.1704 37.5352 44.1104 37.4314 44.0487 37.3245C43.9961 37.2326 43.9436 37.1408 43.8894 37.0461C43.8434 36.9815 43.7974 36.9169 43.7501 36.8503C43.4966 36.8252 43.4966 36.8252 43.2651 37.1028Z" fill="black"/>
<path d="M27.9726 6.84738C28.0548 6.84758 28.1369 6.84778 28.2215 6.84799C29.4191 6.85288 30.5551 6.90282 31.7187 7.20969C31.8636 7.24346 32.0084 7.27721 32.1532 7.31094C34.9316 8.00297 37.3707 9.57555 39.375 11.5847C39.5158 11.7236 39.5158 11.7236 39.6595 11.8654C42.4143 14.7295 43.7742 18.6396 43.7773 22.5632C43.7774 22.6469 43.7775 22.7306 43.7775 22.8169C43.7759 24.0255 43.7409 25.1772 43.4219 26.3503C43.392 26.4604 43.392 26.4604 43.3615 26.5726C42.562 29.4504 41.1415 31.8937 39.0469 34.0066C38.9539 34.1009 38.861 34.1952 38.7653 34.2924C35.8984 37.0451 31.9934 38.4058 28.0683 38.4089C27.9846 38.409 27.9009 38.4091 27.8146 38.4091C26.6057 38.4074 25.4548 38.3714 24.2812 38.0534C24.2102 38.0347 24.1391 38.0159 24.066 37.9966C19.9488 36.8872 16.4548 34.2676 14.2937 30.59C12.8727 28.1106 12.2249 25.5574 12.2226 22.6999C12.2226 22.6162 12.2225 22.5325 12.2224 22.4462C12.2241 21.2376 12.2591 20.0859 12.5781 18.9128C12.598 18.8394 12.618 18.7661 12.6385 18.6905C13.4379 15.8127 14.8585 13.3694 16.9531 11.2566C17.046 11.1622 17.1389 11.0679 17.2347 10.9707C20.1203 8.19998 24.0184 6.82745 27.9726 6.84738ZM17.8791 12.9484C16.5438 14.3437 15.5628 16.0234 14.875 17.8191C14.8335 17.9266 14.7921 18.0342 14.7494 18.1451C13.5108 21.5954 13.867 25.4431 15.4096 28.7284C15.943 29.8114 16.5991 30.7973 17.3906 31.7097C17.4669 31.8005 17.5432 31.8913 17.6217 31.9848C20.0585 34.8068 23.5485 36.2886 27.207 36.6111C30.8972 36.7859 34.4131 35.5613 37.1875 33.1316C37.2726 33.0609 37.3578 32.9903 37.4455 32.9175C39.955 30.7931 41.5126 27.5085 41.8906 24.2722C42.1472 20.2386 41.2083 16.6755 38.6094 13.5534C38.4877 13.4067 38.4877 13.4067 38.3637 13.2569C36.0358 10.5598 32.5956 8.98963 29.0821 8.66871C24.8814 8.36172 20.846 9.99615 17.8791 12.9484Z" fill="black"/>
<path d="M28.547 12.8972C29.4722 13.6374 30.0996 14.7849 30.7071 15.782C30.8497 16.0155 30.9927 16.2488 31.1361 16.4818C31.1982 16.5838 31.2604 16.6858 31.3244 16.7909C31.6939 17.3431 32.0182 17.463 32.6592 17.6136C32.7821 17.6441 32.7821 17.6441 32.9074 17.6753C33.1695 17.7403 33.4319 17.8038 33.6944 17.867C36.4915 18.5449 36.4915 18.5449 37.044 19.0974C37.24 19.592 37.2333 19.9374 37.0782 20.4441C36.6956 21.2454 36.0229 21.9097 35.4436 22.5739C35.0535 23.0219 34.6789 23.4813 34.305 23.9428C34.1251 24.1629 34.1251 24.1629 34.0157 24.2722C34.0263 24.574 34.0434 24.8734 34.0636 25.1746C34.1212 26.1681 34.1412 27.16 34.1456 28.1551C34.1477 28.3634 34.1477 28.3634 34.1499 28.576C34.1501 28.772 34.1501 28.772 34.1503 28.972C34.1508 29.0886 34.1512 29.2053 34.1517 29.3255C34.1248 29.6351 34.0736 29.81 33.9063 30.0691C33.5477 30.3645 33.2241 30.4631 32.7583 30.4408C31.8577 30.2975 30.9991 29.9206 30.1679 29.559C30.0484 29.5081 29.9289 29.4572 29.8058 29.4047C29.5675 29.3025 29.3304 29.1973 29.0947 29.0891C28.4193 28.8004 27.9927 28.6883 27.2993 28.9597C27.2057 29.001 27.1121 29.0422 27.0157 29.0847C26.7897 29.1727 26.5637 29.2605 26.3377 29.3484C26.1009 29.4446 25.8644 29.5413 25.628 29.6385C23.5918 30.4739 23.5918 30.4739 22.6407 30.3972C22.3285 30.2615 22.1551 30.1648 21.9715 29.8779C21.8515 29.5714 21.8486 29.3288 21.8499 28.9997C21.8501 28.8747 21.8504 28.7496 21.8506 28.6207C21.8519 28.4874 21.8532 28.354 21.8546 28.2166C21.8545 28.0798 21.8544 27.9429 21.8543 27.802C21.8567 27.1632 21.8709 26.5337 21.9388 25.8983C22.0755 24.8757 22.0755 24.8757 21.7905 23.9176C21.5078 23.6099 21.2047 23.3446 20.8907 23.0691C20.6718 22.8203 20.4699 22.5599 20.2687 22.2967C20.2184 22.232 20.1681 22.1673 20.1163 22.1007C18.7407 20.3226 18.7407 20.3226 18.8126 19.4597C19.0315 19.0018 19.2375 18.7758 19.703 18.595C19.8884 18.5343 20.0748 18.4763 20.2618 18.4207C20.4109 18.3734 20.4109 18.3734 20.563 18.3251C21.4729 18.0433 22.3972 17.8145 23.3261 17.6049C23.4318 17.5803 23.5376 17.5557 23.6465 17.5303C23.7401 17.5094 23.8337 17.4885 23.9302 17.467C24.387 17.3057 24.5707 16.9629 24.8124 16.5613C24.8711 16.4648 24.9297 16.3683 24.9902 16.2689C25.0518 16.1669 25.1134 16.0648 25.1769 15.9597C25.6841 15.1296 26.1977 14.3211 26.797 13.5535C26.8717 13.4562 26.9464 13.3589 27.0234 13.2587C27.4606 12.7366 27.9095 12.7265 28.547 12.8972ZM27.8907 15.1941C27.7137 15.4293 27.7137 15.4293 27.5335 15.7337C27.4632 15.8477 27.3928 15.9617 27.3204 16.0792C27.2102 16.2603 27.2102 16.2603 27.0978 16.4451C26.8831 16.7948 26.6682 17.1443 26.452 17.4931C26.3245 17.6989 26.1983 17.9055 26.0739 18.1131C26.0198 18.2001 25.9657 18.2871 25.91 18.3767C25.8644 18.4518 25.8187 18.527 25.7717 18.6044C25.3289 19.1001 24.6572 19.2256 24.0361 19.379C23.9521 19.4004 23.868 19.4218 23.7814 19.4438C23.5153 19.5113 23.2489 19.5778 22.9825 19.6443C22.8011 19.6902 22.6196 19.7361 22.4382 19.7821C21.9955 19.8942 21.5526 20.0053 21.1095 20.116C21.3662 20.5561 21.657 20.9361 21.9913 21.3191C22.4255 21.8247 22.848 22.337 23.256 22.864C23.3025 22.9235 23.349 22.983 23.397 23.0443C24.1289 23.9979 23.8496 25.2589 23.7588 26.3952C23.7191 27.0364 23.7257 27.677 23.7345 28.3191C24.0059 28.2264 24.277 28.133 24.548 28.0388C24.6311 28.01 24.7143 27.9811 24.8 27.9514C25.2396 27.7964 25.6724 27.6333 26.1006 27.4488C26.2225 27.3964 26.2225 27.3964 26.3469 27.3429C26.5017 27.2754 26.6559 27.2066 26.8093 27.1363C27.5989 26.7921 28.2466 26.8289 29.0665 27.116C29.1341 27.1394 29.2016 27.1629 29.2712 27.187C30.1821 27.5094 31.0758 27.8799 31.9692 28.2475C32.14 28.3256 32.14 28.3256 32.2657 28.3191C32.2771 27.5685 32.2664 26.8258 32.211 26.0769C32.1737 25.546 32.1411 25.0164 32.129 24.4842C32.1262 24.3746 32.1234 24.2651 32.1205 24.1522C32.2043 23.4109 32.6759 22.9244 33.1544 22.3924C33.2817 22.2481 33.4089 22.1036 33.5359 21.9591C33.5985 21.8883 33.661 21.8174 33.7255 21.7443C33.9841 21.4491 34.2367 21.1495 34.4874 20.8474C34.5659 20.7531 34.6445 20.6588 34.7254 20.5616C34.9122 20.3521 34.9122 20.3521 34.8907 20.116C34.7677 20.0857 34.6446 20.0555 34.5179 20.0243C34.0598 19.911 33.6023 19.7953 33.145 19.6787C32.9473 19.6287 32.7495 19.5794 32.5515 19.5308C32.2662 19.4606 31.9816 19.388 31.6971 19.3149C31.609 19.2938 31.5209 19.2727 31.4301 19.251C30.6347 19.0419 30.2513 18.6181 29.8185 17.9264C29.7212 17.7721 29.7212 17.7721 29.6219 17.6147C29.5559 17.5084 29.49 17.4022 29.422 17.2928C29.356 17.1878 29.29 17.0828 29.222 16.9747C28.7131 16.1643 28.7131 16.1643 28.4944 15.7977C28.3715 15.5931 28.2413 15.393 28.1095 15.1941C28.0373 15.1941 27.9651 15.1941 27.8907 15.1941Z" fill="black"/>
</g>
<defs>
<clipPath id="clip0_28_596">
<rect width="56" height="56" fill="white" transform="translate(0 0.756592)"/>
</clipPath>
</defs>
</svg>
