<svg width="56" height="57" viewBox="0 0 56 57" fill="none" xmlns="http://www.w3.org/2000/svg">
<path d="M2.74115 26.2443C3.17182 26.3126 3.17182 26.3126 3.41428 26.5335C3.66336 26.9499 3.66766 27.2991 3.66059 27.77C3.66179 27.9529 3.66302 28.1358 3.66427 28.3188C3.66414 28.4142 3.66401 28.5096 3.66388 28.608C3.66674 35.2785 6.10468 41.2994 10.7187 46.1095C10.8043 46.1996 10.8899 46.2897 10.978 46.3825C11.5796 47.0013 12.2252 47.5488 12.9062 48.0783C12.9954 48.1481 12.9954 48.1481 13.0864 48.2193C18.122 52.1311 24.6555 53.9297 30.9813 53.1369C34.0167 52.7232 36.8959 51.8336 39.5937 50.3751C39.6592 50.3402 39.7246 50.3053 39.7921 50.2693C41.4368 49.3862 42.9525 48.2775 44.3173 47.005C44.8133 46.5556 45.2095 46.2229 45.9058 46.2159C46.4465 46.3848 46.7451 46.7496 47.1269 47.1554C47.2022 47.2332 47.2775 47.3109 47.355 47.391C47.5401 47.5825 47.7237 47.7751 47.9062 47.9689C48.3745 46.333 48.7884 44.6847 49.1982 43.0333C49.2642 42.7683 49.3302 42.5033 49.3962 42.2382C49.5561 41.5964 49.7156 40.9546 49.8749 40.3126C48.9089 40.5529 47.943 40.7934 46.9771 41.0343C46.5286 41.1461 46.0801 41.2578 45.6316 41.3694C45.1989 41.4769 44.7663 41.5847 44.3338 41.6927C44.1685 41.734 44.0033 41.7751 43.838 41.8161C43.6069 41.8735 43.376 41.9312 43.145 41.9889C43.0134 42.0217 42.8817 42.0545 42.7461 42.0883C42.4458 42.1589 42.4458 42.1589 42.2187 42.2814C42.2672 42.3294 42.3158 42.3774 42.3658 42.4268C42.5859 42.6446 42.8056 42.8629 43.0253 43.0812C43.1018 43.1567 43.1782 43.2322 43.2569 43.31C43.3302 43.383 43.4035 43.4559 43.4791 43.5311C43.5467 43.5981 43.6142 43.6651 43.6839 43.7342C44.0374 44.1127 44.1081 44.381 44.1392 44.8919C44.0442 45.2545 43.8042 45.4226 43.5312 45.672C43.4404 45.7613 43.3496 45.8505 43.256 45.9425C39.4337 49.5628 34.0387 51.685 28.7861 51.7423C28.6119 51.7454 28.6119 51.7454 28.4341 51.7485C27.6437 51.7419 27.6437 51.7419 27.2706 51.4928C27.0427 51.1132 27.0377 50.8042 27.1249 50.3751C27.3256 50.0853 27.4544 49.9671 27.7944 49.8744C28.1197 49.8267 28.4399 49.8116 28.7683 49.8021C33.5547 49.6525 38.2357 47.7904 41.7812 44.5783C41.7083 44.5105 41.6354 44.4428 41.5603 44.373C41.2892 44.1188 41.0205 43.8624 40.7531 43.6043C40.6373 43.4934 40.5206 43.3834 40.403 43.2743C39.3013 42.2508 39.3013 42.2508 39.2656 41.6281C39.2851 41.3041 39.3567 41.2059 39.5885 40.9743C40.0309 40.6768 40.4616 40.574 40.9758 40.4495C41.0813 40.4227 41.1868 40.396 41.2956 40.3685C41.6437 40.2807 41.9922 40.1949 42.3409 40.1093C42.5835 40.0487 42.8261 39.988 43.0687 39.9272C43.5769 39.8002 44.0854 39.6742 44.594 39.5489C45.2453 39.3884 45.896 39.2259 46.5466 39.0627C47.0474 38.9372 47.5485 38.8126 48.0497 38.6883C48.2897 38.6287 48.5296 38.5689 48.7695 38.5088C49.1051 38.4249 49.441 38.3422 49.7771 38.2598C49.8757 38.235 49.9744 38.2101 50.076 38.1844C50.6013 38.0571 51.0803 37.9681 51.6249 38.0158C51.9462 38.2414 51.9462 38.2414 52.1718 38.5626C52.2286 39.2113 52.0849 39.7873 51.9278 40.4105C51.9018 40.5165 51.8758 40.6224 51.8491 40.7315C51.7633 41.08 51.6763 41.4282 51.5891 41.7764C51.5288 42.0192 51.4685 42.262 51.4083 42.5048C51.282 43.013 51.155 43.5211 51.0276 44.029C50.8644 44.6797 50.7034 45.3309 50.5429 45.9823C50.4191 46.4836 50.294 46.9846 50.1685 47.4855C50.1086 47.7254 50.0491 47.9656 49.9901 48.2058C49.9074 48.5415 49.823 48.8767 49.7381 49.2118C49.7141 49.3109 49.6901 49.41 49.6654 49.5121C49.5298 50.0386 49.3952 50.4174 48.9999 50.8126C48.6522 50.964 48.3724 50.9287 48.0156 50.8126C47.5621 50.4782 47.1867 50.0767 46.8056 49.6642C46.6997 49.5533 46.5935 49.4427 46.4871 49.3322C46.2286 49.0622 45.9727 48.7901 45.7187 48.5158C45.5806 48.6176 45.4428 48.7198 45.3051 48.8221C45.2284 48.879 45.1516 48.9358 45.0725 48.9944C44.8581 49.1609 44.6592 49.3355 44.4609 49.5207C42.0503 51.654 38.9196 53.1391 35.8749 54.0939C35.7937 54.1197 35.7125 54.1454 35.6287 54.172C33.6138 54.8006 31.4744 55.1944 29.3611 55.2137C29.2637 55.2148 29.1662 55.2158 29.0658 55.217C26.8884 55.2359 24.7778 55.2176 22.6406 54.7501C22.5327 54.7267 22.4249 54.7033 22.3137 54.6791C16.9696 53.4762 11.7354 50.5826 8.20307 46.3283C8.11749 46.233 8.0319 46.1376 7.94373 46.0395C4.77742 42.4849 2.68144 37.7831 1.96869 33.0939C1.94962 32.9712 1.93054 32.8486 1.91088 32.7222C1.7509 31.5896 1.70577 30.4692 1.7034 29.326C1.70207 29.0226 1.69665 28.7195 1.6912 28.4162C1.69016 28.2216 1.68937 28.027 1.68885 27.8324C1.68671 27.7426 1.68457 27.6528 1.68237 27.5603C1.68611 27.0873 1.70726 26.913 2.01286 26.5298C2.28945 26.3183 2.40042 26.2375 2.74115 26.2443Z" fill="#253137"/>
<path d="M27.9248 2.64665C28.0304 2.64671 28.1361 2.64677 28.2449 2.64683C29.9837 2.65132 31.6552 2.75246 33.3593 3.12517C33.5211 3.16033 33.5211 3.16033 33.6862 3.1962C39.0303 4.39916 44.2645 7.29272 47.7968 11.547C47.8824 11.6424 47.968 11.7377 48.0562 11.8359C51.2227 15.3906 53.318 20.0921 54.0312 24.7814C54.0504 24.9041 54.0695 25.0268 54.0893 25.1531C54.2498 26.2862 54.2907 27.4056 54.2905 28.5493C54.291 28.8527 54.295 29.1558 54.2991 29.4591C54.2997 29.6537 54.3002 29.8483 54.3004 30.043C54.3027 30.1776 54.3027 30.1776 54.3051 30.315C54.3016 30.7521 54.2812 30.9661 54.0432 31.3455C53.7808 31.5925 53.6757 31.6371 53.3203 31.631C53.2379 31.6324 53.1556 31.6338 53.0708 31.6353C52.7013 31.5247 52.5955 31.3387 52.3906 31.0158C52.3506 30.6984 52.3346 30.4219 52.3393 30.1053C52.3381 29.9224 52.3369 29.7395 52.3356 29.5566C52.3358 29.4611 52.3359 29.3657 52.336 29.2673C52.3332 22.7098 49.9803 16.6739 45.4357 11.9272C45.2926 11.7777 45.1508 11.627 45.0091 11.4761C44.285 10.7248 43.4887 10.0935 42.6562 9.46892C42.5947 9.42209 42.5333 9.37526 42.4699 9.32702C41.4249 8.53379 40.32 7.88508 39.1562 7.28142C39.0743 7.23868 38.9924 7.19594 38.908 7.15191C33.3523 4.28935 26.6961 3.79882 20.7445 5.65521C19.2385 6.14591 17.7997 6.7481 16.4062 7.50017C16.2167 7.60084 16.2167 7.60084 16.0234 7.70354C14.4977 8.54265 13.1099 9.56419 11.8073 10.7165C10.7395 11.6544 10.7395 11.6544 10.0988 11.6581C9.55373 11.492 9.25688 11.1279 8.87301 10.7199C8.79772 10.6421 8.72243 10.5644 8.64486 10.4843C8.45985 10.2928 8.27623 10.1002 8.09371 9.90642C7.62539 11.5423 7.21155 13.1906 6.80172 14.842C6.73574 15.107 6.66973 15.372 6.60369 15.6371C6.44384 16.2789 6.28428 16.9207 6.12496 17.5627C7.09099 17.3224 8.05695 17.0819 9.02282 16.841C9.47129 16.7292 9.91978 16.6175 10.3683 16.506C10.801 16.3984 11.2336 16.2906 11.6661 16.1826C11.8314 16.1414 11.9966 16.1002 12.1619 16.0592C12.393 16.0018 12.6239 15.9442 12.8549 15.8864C13.0524 15.8372 13.0524 15.8372 13.2538 15.787C13.5541 15.7165 13.5541 15.7165 13.7812 15.5939C13.7327 15.5459 13.6841 15.498 13.6341 15.4485C13.414 15.2307 13.1943 15.0124 12.9746 14.7941C12.8982 14.7186 12.8217 14.6431 12.743 14.5653C12.6697 14.4924 12.5964 14.4194 12.5208 14.3442C12.4533 14.2772 12.3857 14.2102 12.316 14.1411C11.9625 13.7626 11.8918 13.4943 11.8607 12.9834C11.9557 12.6208 12.1957 12.4527 12.4687 12.2033C12.6049 12.0694 12.6049 12.0694 12.7439 11.9328C16.5291 8.34773 21.8896 6.19896 27.0976 6.15349C27.2204 6.15032 27.3432 6.14714 27.4698 6.14388C27.6468 6.1425 27.6468 6.1425 27.8274 6.1411C27.9341 6.1395 28.0407 6.13791 28.1507 6.13627C28.5175 6.20201 28.6449 6.33861 28.875 6.62517C28.9547 6.92523 28.9366 7.1968 28.875 7.50017C28.6676 7.79973 28.5396 7.91207 28.1864 8.00058C27.8825 8.04831 27.5868 8.07137 27.2796 8.08635C22.6698 8.34504 17.6794 9.83031 14.3281 13.1877C14.3029 13.4309 14.3029 13.4309 14.5389 13.6265C14.6352 13.7153 14.7314 13.8041 14.8305 13.8956C14.9342 13.9941 15.0378 14.0926 15.1446 14.194C15.3098 14.3506 15.4756 14.5062 15.6436 14.6597C16.6955 15.6248 16.6955 15.6248 16.7309 16.2429C16.7136 16.5693 16.6448 16.6679 16.4115 16.9011C15.969 17.1984 15.5383 17.3014 15.0241 17.4258C14.9186 17.4526 14.8131 17.4793 14.7043 17.5069C14.3562 17.5946 14.0077 17.6804 13.659 17.766C13.4164 17.8266 13.1738 17.8873 12.9312 17.9481C12.423 18.0751 11.9145 18.2011 11.4059 18.3264C10.7546 18.4869 10.1039 18.6494 9.45336 18.8127C8.95247 18.9381 8.45136 19.0627 7.95018 19.187C7.71019 19.2466 7.47027 19.3064 7.2304 19.3665C6.89477 19.4504 6.55886 19.5331 6.22286 19.6155C6.07486 19.6528 6.07486 19.6528 5.92388 19.6909C5.39864 19.8182 4.91965 19.9072 4.37496 19.8595C4.05368 19.634 4.05368 19.634 3.82809 19.3127C3.77129 18.664 3.91498 18.088 4.07215 17.4648C4.09812 17.3589 4.12409 17.2529 4.15084 17.1438C4.23658 16.7953 4.32365 16.4471 4.41085 16.0989C4.47115 15.8561 4.5314 15.6133 4.59162 15.3705C4.7179 14.8623 4.84488 14.3542 4.97231 13.8463C5.13547 13.1956 5.2965 12.5444 5.45698 11.893C5.58079 11.3917 5.70591 10.8907 5.8314 10.3899C5.89132 10.1499 5.95079 9.90976 6.00981 9.66954C6.09246 9.33384 6.17689 8.99864 6.26179 8.66351C6.28579 8.5644 6.30978 8.4653 6.3345 8.36319C6.47009 7.83671 6.60468 7.45795 6.99996 7.06267C7.34773 6.91134 7.62748 6.94664 7.98434 7.06267C8.43782 7.39713 8.81324 7.79861 9.1943 8.21111C9.30024 8.32199 9.40641 8.43265 9.51281 8.54308C9.77131 8.81315 10.0272 9.08524 10.2812 9.35954C10.4193 9.25769 10.5571 9.15551 10.6948 9.05321C10.7716 8.99634 10.8483 8.93948 10.9274 8.88089C11.1419 8.71444 11.3407 8.53981 11.539 8.35466C14.879 5.39878 19.4839 3.59035 23.8437 2.90642C23.9701 2.88645 24.0965 2.86648 24.2267 2.84591C25.4594 2.67087 26.681 2.64401 27.9248 2.64665Z" fill="#253137"/>
<path d="M32.2655 11.4376C32.5674 11.6467 32.6765 11.7784 32.7734 12.1317C32.8141 12.4346 32.7935 12.647 32.7315 12.945C32.7108 13.0471 32.6901 13.1492 32.6688 13.2544C32.6334 13.4205 32.6334 13.4205 32.5973 13.5899C32.5732 13.7075 32.549 13.8251 32.5241 13.9463C32.4439 14.3351 32.3622 14.7235 32.2805 15.112C32.2243 15.3821 32.1683 15.6522 32.1124 15.9223C31.9949 16.4884 31.8767 17.0544 31.7579 17.6203C31.6207 18.2737 31.4846 18.9274 31.3491 19.5813C31.2186 20.2111 31.0876 20.8408 30.9562 21.4704C30.9004 21.738 30.8447 22.0055 30.7891 22.2731C30.7113 22.6471 30.6329 23.021 30.5543 23.3948C30.5313 23.5055 30.5084 23.6162 30.4848 23.7302C30.4632 23.8323 30.4416 23.9344 30.4193 24.0397C30.4008 24.128 30.3823 24.2163 30.3633 24.3073C30.2478 24.7504 30.1304 25.1595 29.7499 25.4376C29.514 25.4812 29.514 25.4812 29.2577 25.4787C29.1731 25.4795 29.0885 25.4804 29.0013 25.4812C28.7655 25.4376 28.7655 25.4376 28.5775 25.3257C28.1409 24.6521 28.3783 23.8387 28.5324 23.1099C28.5644 22.9657 28.5964 22.8214 28.6284 22.6772C28.6605 22.5272 28.6926 22.3772 28.7245 22.2272C28.8083 21.8345 28.8938 21.4423 28.9796 21.05C29.1171 20.4205 29.2519 19.7904 29.3871 19.1604C29.4344 18.9408 29.4823 18.7214 29.5303 18.5019C29.5591 18.369 29.5879 18.2361 29.6176 18.0991C29.6432 17.982 29.6688 17.8649 29.6952 17.7443C29.76 17.4489 29.76 17.4489 29.7499 17.1251C29.7088 17.1854 29.6677 17.2457 29.6253 17.3078C29.5379 17.4361 29.5379 17.4361 29.4487 17.5669C29.3831 17.6631 29.3175 17.7593 29.2499 17.8584C29.1027 18.0743 28.9555 18.2902 28.8083 18.5061C28.4338 19.0554 28.0594 19.6046 27.685 20.1539C26.9857 21.18 26.2857 22.2056 25.5842 23.2301C25.1308 23.8925 24.6785 24.5556 24.2264 25.2189C23.6594 26.0509 23.0915 26.8823 22.5227 27.713C22.2031 28.1798 21.8841 28.647 21.5656 29.1145C21.4941 29.2194 21.4227 29.3242 21.3492 29.4322C21.2131 29.632 21.0771 29.8318 20.9411 30.0316C20.5717 30.5741 20.2 31.1149 19.8261 31.6543C19.781 31.7195 19.7359 31.7846 19.6894 31.8518C19.5794 32.0106 19.4693 32.1694 19.3593 32.3283C19.4572 32.3289 19.5551 32.3296 19.656 32.3302C20.5782 32.3365 21.5004 32.3444 22.4226 32.3541C22.8967 32.3589 23.3708 32.3632 23.8449 32.3662C24.3024 32.369 24.7598 32.3734 25.2172 32.3789C25.3918 32.3808 25.5665 32.382 25.7411 32.3827C25.9855 32.3838 26.2298 32.3868 26.4741 32.3904C26.6133 32.3916 26.7524 32.3928 26.8958 32.394C27.2343 32.4376 27.2343 32.4376 27.44 32.5821C27.8017 33.1247 27.667 33.7565 27.5536 34.3574C27.4943 34.638 27.4335 34.9181 27.3714 35.1981C27.3392 35.3481 27.3072 35.4981 27.2753 35.6481C27.1915 36.0407 27.106 36.433 27.0201 36.8253C26.8827 37.4548 26.7479 38.0849 26.6127 38.7149C26.5654 38.9345 26.5175 39.1539 26.4695 39.3734C26.4407 39.5063 26.4118 39.6392 26.3821 39.7762C26.3438 39.9518 26.3438 39.9518 26.3046 40.131C26.2398 40.4264 26.2398 40.4264 26.2499 40.7501C26.3133 40.6571 26.3133 40.6571 26.3779 40.5622C27.1182 39.4759 27.8588 38.3896 28.6014 37.3048C29.3869 36.1575 30.17 35.0085 30.953 33.8595C31.7939 32.6257 32.6351 31.3921 33.4786 30.1601C33.9271 29.5047 34.3748 28.8487 34.8221 28.1925C34.8899 28.0932 34.9576 27.9939 35.0274 27.8915C35.387 27.364 35.7464 26.8362 36.1056 26.3084C36.1791 26.2003 36.2527 26.0923 36.3285 25.981C36.4686 25.7751 36.6087 25.5692 36.7488 25.3632C36.9308 25.0959 37.1135 24.8291 37.2968 24.5626C37.3497 24.4852 37.4027 24.4078 37.4573 24.328C37.8178 23.8099 37.8178 23.8099 38.0624 23.6876C38.8337 23.6254 38.8337 23.6254 39.2108 23.8517C39.4373 24.2291 39.4355 24.5748 39.3749 25.0001C39.2369 25.2736 39.1102 25.4831 38.9305 25.7248C38.8297 25.868 38.7289 26.0113 38.6281 26.1546C38.5726 26.2319 38.5171 26.3093 38.4599 26.389C38.1975 26.7586 37.944 27.1341 37.6896 27.5093C37.0483 28.4552 36.4012 29.3971 35.7557 30.3401C35.0283 31.4028 34.3033 32.4672 33.578 33.5314C32.7372 34.7652 31.8959 35.9988 31.0524 37.2309C30.3251 38.2936 29.6001 39.3579 28.8749 40.422C26.8813 43.3474 26.8813 43.3474 25.9712 44.6743C25.8178 44.8984 25.6653 45.123 25.5129 45.3477C25.4236 45.4786 25.3343 45.6095 25.245 45.7404C25.169 45.8523 25.093 45.9643 25.0147 46.0796C24.828 46.3283 24.828 46.3283 24.6093 46.4376C23.8255 46.5008 23.8255 46.5008 23.4677 46.2531C23.1745 45.8192 23.1703 45.4736 23.2607 44.9696C23.3007 44.773 23.3419 44.5767 23.3841 44.3806C23.4063 44.2731 23.4285 44.1656 23.4514 44.0549C23.525 43.7001 23.6001 43.3456 23.6753 42.9911C23.7268 42.7447 23.7782 42.4983 23.8295 42.2519C23.9371 41.7359 24.0455 41.2201 24.1545 40.7043C24.2943 40.0421 24.433 39.3796 24.5712 38.717C24.7028 38.0863 24.835 37.4557 24.9673 36.825C24.9926 36.7041 25.0179 36.5832 25.044 36.4586C25.1154 36.1179 25.1873 35.7772 25.2593 35.4366C25.2805 35.335 25.3018 35.2333 25.3237 35.1286C25.3433 35.0361 25.3629 34.9437 25.3832 34.8484C25.4001 34.7679 25.4171 34.6873 25.4346 34.6043C25.4843 34.4064 25.4843 34.4064 25.5936 34.1876C25.4877 34.1886 25.3818 34.1896 25.2727 34.1906C24.2749 34.1995 23.2771 34.206 22.2793 34.2103C21.7663 34.2126 21.2533 34.2157 20.7403 34.2207C20.2453 34.2254 19.7503 34.228 19.2553 34.2292C19.0664 34.23 18.8775 34.2315 18.6886 34.2339C18.4241 34.2371 18.1597 34.2375 17.8952 34.2373C17.817 34.2389 17.7388 34.2405 17.6582 34.2421C17.2924 34.239 17.0936 34.2105 16.795 33.992C16.5866 33.6957 16.5627 33.4581 16.5825 33.0991C16.6531 32.7257 16.8473 32.4489 17.0692 32.1505C17.1701 32.0073 17.2709 31.864 17.3717 31.7207C17.4272 31.6434 17.4827 31.566 17.5398 31.4863C17.8023 31.1167 18.0558 30.7412 18.3101 30.366C18.9512 29.4204 19.5982 28.4787 20.2436 27.536C20.697 26.8735 21.1494 26.2104 21.6014 25.547C22.1111 24.7991 22.6214 24.0516 23.1327 23.3048C23.9182 22.1575 24.7012 21.0085 25.4843 19.8595C26.3246 18.6264 27.1653 17.3935 28.0084 16.1622C28.3998 15.5904 28.7902 15.018 29.1803 14.4453C29.4545 14.0429 29.729 13.6406 30.0036 13.2384C30.1702 12.9941 30.3363 12.7493 30.5023 12.5045C30.591 12.3744 30.6797 12.2444 30.7684 12.1144C30.8425 12.0054 30.9165 11.8964 30.9927 11.7841C31.3222 11.3478 31.7524 11.3645 32.2655 11.4376Z" fill="#253137"/>
<path d="M24.9375 49.9377C25.2109 50.1018 25.2109 50.1018 25.375 50.3752C25.4615 50.815 25.443 51.1369 25.2109 51.5237C24.8242 51.7557 24.5023 51.7742 24.0625 51.6877C23.789 51.5237 23.789 51.5237 23.625 51.2502C23.5385 50.8104 23.557 50.4885 23.789 50.1018C24.1758 49.8697 24.4977 49.8512 24.9375 49.9377Z" fill="#263137"/>
<path d="M31.9375 6.18772C32.2109 6.35179 32.2109 6.35179 32.375 6.62522C32.4615 7.06502 32.443 7.38692 32.2109 7.77366C31.8242 8.0057 31.5023 8.02424 31.0625 7.93772C30.789 7.77366 30.789 7.77366 30.625 7.50022C30.5385 7.06043 30.557 6.73852 30.789 6.35179C31.1758 6.11974 31.4977 6.10121 31.9375 6.18772Z" fill="#263137"/>
</svg>
