<svg width="56" height="57" viewBox="0 0 56 57" fill="none" xmlns="http://www.w3.org/2000/svg">
<g clip-path="url(#clip0_28_600)">
<path d="M54.2363 27.5123C54.8518 28.0886 55.0627 28.7581 55.1797 29.5768C55.0036 30.8091 54.4258 31.5358 53.556 32.3899C53.4395 32.507 53.3232 32.6243 53.2071 32.7417C52.8933 33.0581 52.5772 33.3719 52.2605 33.6854C51.9277 34.0154 51.5969 34.3474 51.2658 34.6791C50.7093 35.236 50.1513 35.7913 49.5923 36.3457C48.9488 36.984 48.3076 37.6246 47.6677 38.2665C47.0492 38.8868 46.429 39.5056 45.8082 40.1237C45.5454 40.3854 45.2832 40.6475 45.0214 40.9101C44.7119 41.2203 44.4011 41.5291 44.0892 41.8369C43.9759 41.9491 43.8631 42.0618 43.7508 42.1749C41.3644 44.5771 38.0453 45.3717 34.7812 45.819C34.6662 45.8355 34.5511 45.852 34.4325 45.869C32.7591 46.0972 31.0998 46.1584 29.4129 46.1556C29.3346 46.1555 29.2563 46.1554 29.1756 46.1553C28.3754 46.1537 27.5753 46.1489 26.7752 46.138C26.4697 46.1341 26.1641 46.1314 25.8586 46.1289C25.6483 46.1267 25.438 46.1225 25.2277 46.1183C23.1798 46.1015 21.4133 46.7026 19.9062 48.1158C19.6728 48.3633 19.4614 48.6144 19.25 48.8815C19.3154 48.9559 19.3808 49.0304 19.4482 49.1071C20.0297 49.8879 20.1042 50.5477 20.0156 51.5065C19.8043 52.7861 18.3989 53.808 17.5207 54.6959C17.4017 54.8168 17.2833 54.9382 17.1654 55.0602C16.3732 55.88 15.6353 56.6196 14.4717 56.8291C14.2923 56.827 14.2923 56.827 14.1094 56.8248C13.9898 56.8262 13.8703 56.8277 13.7471 56.8291C12.6453 56.6307 11.9143 55.9532 11.1506 55.1792C11.0458 55.075 10.9409 54.9709 10.8359 54.8669C10.5536 54.5866 10.273 54.3046 9.99268 54.0221C9.69776 53.7254 9.40145 53.4301 9.10536 53.1345C8.6086 52.6383 8.11296 52.1409 7.61798 51.6429C7.04737 51.0687 6.47501 50.4964 5.90169 49.925C5.34799 49.373 4.79553 48.8198 4.24362 48.266C4.00972 48.0314 3.77539 47.7971 3.54071 47.5633C3.26399 47.2874 2.98839 47.0105 2.71359 46.7327C2.56557 46.5836 2.41649 46.4355 2.26737 46.2875C1.47345 45.4812 0.955003 44.7596 0.84082 43.6178C0.928273 42.5334 1.39385 41.7937 2.15802 41.0513C2.24004 40.9691 2.32205 40.8869 2.40655 40.8022C2.57911 40.63 2.7526 40.4588 2.92698 40.2886C3.1921 40.0292 3.45352 39.7665 3.71469 39.5032C3.88374 39.3354 4.053 39.1679 4.22247 39.0006C4.3384 38.884 4.3384 38.884 4.45666 38.7651C5.05773 38.1835 5.66424 37.7863 6.50525 37.6748C6.61889 37.6779 6.73253 37.681 6.84961 37.6842C6.97128 37.6866 7.09296 37.689 7.21832 37.6915C7.51142 37.7216 7.6894 37.7722 7.9502 37.8961C8.31185 37.9851 8.31185 37.9851 8.55902 37.7739C8.85014 37.5106 9.12706 37.2355 9.40625 36.9596C9.59786 36.7976 9.79157 36.6381 9.9873 36.4811C10.4365 36.1174 10.8801 35.7481 11.3203 35.3737C11.8483 34.9249 12.3822 34.4845 12.9203 34.0479C13.1498 33.8578 13.3756 33.6657 13.5997 33.4694C16.5686 30.8694 19.3694 30.0307 23.2969 30.1783C24.5091 30.2616 25.6402 30.5936 26.7821 30.9972C28.1193 31.4582 29.4647 31.5221 30.8643 31.5209C31.1322 31.5208 31.4001 31.5222 31.668 31.524C32.4284 31.529 33.1888 31.5318 33.9492 31.5325C34.4177 31.5331 34.886 31.5357 35.3545 31.5396C35.531 31.5407 35.7076 31.541 35.8842 31.5404C37.1878 31.5363 38.4085 31.6366 39.4775 32.4684C39.5751 32.5438 39.6727 32.6192 39.7732 32.697C40.0614 32.9379 40.326 33.1814 40.5781 33.4596C41.1645 32.9342 41.7484 32.4063 42.3281 31.8737C42.7273 31.5069 43.1278 31.1419 43.5312 30.7799C43.9298 30.4221 44.326 30.0619 44.7207 29.6998C44.8029 29.6245 44.8029 29.6245 44.8868 29.5476C45.1679 29.2898 45.4482 29.0313 45.7273 28.7714C48.2107 26.4638 51.2239 25.1092 54.2363 27.5123ZM46.8676 30.3655C46.5311 30.6828 46.1871 30.9892 45.8367 31.2909C45.4598 31.6224 45.0935 31.9653 44.7253 32.3065C44.3663 32.6391 44.0052 32.969 43.6406 33.2955C43.1998 33.6907 42.7632 34.0903 42.3281 34.4918C42.2664 34.5488 42.2046 34.6057 42.141 34.6644C41.9083 34.8795 41.6772 35.0949 41.4531 35.319C41.4486 35.6133 41.4545 35.9004 41.4668 36.194C41.4824 37.0815 41.4158 37.788 40.8302 38.4964C39.887 39.4186 38.6966 39.414 37.4437 39.4066C37.2848 39.4068 37.1258 39.4072 36.9669 39.4078C36.5385 39.4088 36.1101 39.4078 35.6817 39.4063C35.2323 39.4051 34.7829 39.4055 34.3335 39.4057C33.5798 39.4058 32.8261 39.4046 32.0723 39.4026C31.2012 39.4003 30.33 39.3999 29.4588 39.4006C28.6194 39.4012 27.7799 39.4006 26.9405 39.3994C26.5837 39.3989 26.2269 39.3988 25.8701 39.399C25.4504 39.3992 25.0308 39.3983 24.6112 39.3966C24.4573 39.3961 24.3033 39.396 24.1493 39.3963C23.9393 39.3967 23.7292 39.3956 23.5192 39.3944C23.4016 39.3941 23.2841 39.3939 23.163 39.3937C22.8569 39.3656 22.6772 39.3151 22.4219 39.1471C22.2515 38.8063 22.2507 38.4247 22.3125 38.0533C22.4379 37.8784 22.4379 37.8784 22.6406 37.7252C22.934 37.6841 22.934 37.6841 23.2951 37.6838C23.4319 37.6829 23.5687 37.682 23.7096 37.6811C23.8615 37.6818 24.0133 37.6824 24.1652 37.6831C24.3249 37.6827 24.4846 37.6821 24.6444 37.6814C24.9885 37.6801 25.3326 37.6798 25.6767 37.6803C26.2209 37.681 26.765 37.6793 27.3092 37.6772C28.4646 37.6731 29.62 37.6717 30.7754 37.6705C32.0219 37.6693 33.2685 37.6676 34.515 37.6628C35.0559 37.6608 35.5968 37.6604 36.1377 37.6612C36.4743 37.6613 36.811 37.6601 37.1476 37.6586C37.3037 37.6582 37.4597 37.6583 37.6157 37.659C37.8289 37.6599 38.0421 37.6586 38.2553 37.6573C38.3745 37.6572 38.4937 37.6571 38.6166 37.657C38.9824 37.6101 39.1878 37.5031 39.4844 37.2877C39.7886 36.8593 39.7103 36.4545 39.6519 35.9547C39.4806 35.0483 38.9373 34.3839 38.1864 33.8655C37.5789 33.503 37.1208 33.4459 36.4209 33.4406C36.3445 33.4399 36.2681 33.4391 36.1895 33.4384C36.0238 33.4369 35.8581 33.4356 35.6925 33.4345C35.4287 33.4327 35.165 33.4301 34.9012 33.4274C34.1513 33.4197 33.4014 33.4131 32.6515 33.4074C32.1922 33.4039 31.7328 33.3994 31.2735 33.3943C31.0999 33.3926 30.9263 33.3912 30.7528 33.3903C29.0831 33.381 27.5569 33.208 25.9561 32.694C23.149 31.8019 20.0558 31.591 17.3651 32.9691C16.6194 33.3828 16.0013 33.9327 15.3759 34.5067C15.1233 34.7348 14.8596 34.9481 14.5947 35.1617C14.1549 35.5189 13.7207 35.8818 13.2891 36.2487C12.7599 36.6983 12.2253 37.1402 11.6865 37.5782C11.2587 37.9303 10.837 38.2895 10.4167 38.6504C9.97669 39.0259 9.97669 39.0259 9.73438 39.1471C9.89624 39.5231 10.1077 39.7652 10.3975 40.0521C10.4892 40.1434 10.5809 40.2347 10.6753 40.3288C10.7747 40.4267 10.874 40.5245 10.9764 40.6254C11.1327 40.7808 11.289 40.9362 11.4453 41.0917C11.6644 41.3094 11.8841 41.5266 12.1037 41.7438C12.5384 42.1738 12.9725 42.6046 13.4061 43.0357C13.5565 43.185 13.7073 43.3339 13.8581 43.4827C14.3428 43.9638 14.8093 44.4516 15.254 44.9699C15.4909 45.242 15.7433 45.4964 15.9991 45.7506C16.1002 45.8514 16.2014 45.9522 16.3056 46.0561C16.4098 46.1594 16.514 46.2626 16.6182 46.3658C16.7254 46.4725 16.8325 46.5792 16.9397 46.6859C17.1991 46.944 17.4588 47.2019 17.7188 47.4596C18.119 47.2734 18.3534 47.0529 18.6553 46.7282C20.1448 45.2146 22.2708 44.3314 24.3924 44.2797C24.7894 44.2787 25.1861 44.2812 25.5831 44.2847C25.7322 44.2855 25.8813 44.2862 26.0305 44.2868C26.6582 44.2894 27.2859 44.2932 27.9136 44.2982C30.4565 44.3177 32.9734 44.2584 35.4854 43.816C35.6234 43.7921 35.7615 43.7682 35.9037 43.7435C37.348 43.4853 38.7008 43.1622 40.0381 42.5514C40.111 42.5182 40.184 42.485 40.2591 42.4509C41.3438 41.9241 42.1814 41.0758 43.023 40.2305C43.1327 40.1212 43.2424 40.0118 43.3521 39.9026C43.6473 39.6084 43.9417 39.3136 44.236 39.0186C44.545 38.709 44.8546 38.4 45.1641 38.0908C45.6829 37.5724 46.2012 37.0535 46.7193 36.5344C47.318 35.9345 47.9175 35.3354 48.5175 34.7367C49.0337 34.2214 49.5495 33.7058 50.0649 33.1898C50.3723 32.8821 50.6798 32.5745 50.9877 32.2673C51.2767 31.979 51.5651 31.6901 51.8531 31.4009C52.0092 31.2443 52.1659 31.0883 52.3226 30.9323C52.4154 30.8389 52.5081 30.7455 52.6037 30.6493C52.6845 30.5685 52.7652 30.4876 52.8485 30.4043C53.1142 30.1016 53.2692 29.8819 53.2588 29.4742C53.089 29.0102 52.8037 28.7507 52.3697 28.5194C50.0025 27.4391 48.5454 28.7811 46.8676 30.3655ZM4.40261 41.5055C4.22324 41.6846 4.04301 41.8628 3.86273 42.041C3.74775 42.1557 3.63282 42.2704 3.51794 42.3852C3.4644 42.438 3.41085 42.4907 3.35569 42.5451C2.96711 42.93 2.96711 42.93 2.73438 43.4127C2.77539 43.9376 2.89358 44.1875 3.26209 44.559C3.35209 44.651 3.44208 44.743 3.53481 44.8378C3.63429 44.9367 3.73377 45.0356 3.83627 45.1375C3.94166 45.2441 4.04693 45.3509 4.1521 45.4578C4.4376 45.7472 4.72484 46.0348 5.01254 46.322C5.25275 46.5621 5.49215 46.803 5.73158 47.0438C6.29651 47.6121 6.86291 48.1789 7.43021 48.7448C8.01509 49.3282 8.59731 49.9143 9.17829 50.5017C9.67758 51.0063 10.1785 51.5091 10.6809 52.0107C10.9807 52.3101 11.2799 52.6101 11.5774 52.9118C11.8573 53.1955 12.1392 53.477 12.4228 53.757C12.5757 53.9089 12.7264 54.063 12.8771 54.2172C13.4243 54.7778 13.4243 54.7778 14.1514 54.9784C14.5381 54.8989 14.6963 54.856 14.9658 54.5793C15.0354 54.5099 15.1051 54.4405 15.1768 54.3691C15.2485 54.2932 15.3202 54.2173 15.3941 54.1392C15.4703 54.062 15.5465 53.9848 15.625 53.9053C15.867 53.6591 16.1058 53.41 16.3447 53.1608C16.5082 52.9938 16.6719 52.827 16.8358 52.6605C17.1341 52.3558 17.4318 52.0508 17.7271 51.7432C17.7864 51.6815 17.8456 51.6198 17.9067 51.5563C18.1011 51.3356 18.1555 51.1821 18.2109 50.8912C18.0798 50.0063 17.0054 49.2462 16.3935 48.6358C16.2967 48.5388 16.1998 48.4418 16.1001 48.3418C15.837 48.0784 15.5738 47.8152 15.3104 47.5522C15.034 47.276 14.7579 46.9997 14.4817 46.7233C14.0188 46.2602 13.5557 45.7974 13.0924 45.3347C12.5567 44.7995 12.0214 44.264 11.4863 43.7283C11.026 43.2675 10.5654 42.8068 10.1047 42.3464C9.82983 42.0717 9.55507 41.797 9.28051 41.5221C8.97527 41.2165 8.66958 40.9113 8.36385 40.6062C8.27277 40.5149 8.18169 40.4236 8.08785 40.3295C8.00491 40.2469 7.92197 40.1642 7.83651 40.0791C7.76431 40.0069 7.69211 39.9348 7.61772 39.8604C7.36383 39.6259 7.22426 39.5855 6.87695 39.5299C5.89002 39.6573 5.08978 40.8182 4.40261 41.5055Z" fill="black"/>
<path d="M37.0344 6.58538C37.9135 7.21099 38.3726 8.07415 38.794 9.04172C39.2675 10.2211 39.2675 10.2211 40.2509 10.9502C40.9778 11.1191 41.7316 11.1911 42.4713 11.2824C43.5908 11.4387 44.4073 11.7749 45.1236 12.669C45.7047 13.5098 45.7294 14.447 45.5697 15.4414C45.2359 16.5607 44.0076 17.4625 43.1994 18.2564C43.1307 18.3241 43.062 18.3919 42.9913 18.4616C42.9294 18.5223 42.8675 18.5829 42.8037 18.6454C42.4847 18.9875 42.5187 19.3088 42.5213 19.7553C42.553 20.2018 42.6308 20.633 42.711 21.073C42.9528 22.4355 43.0796 23.6111 42.3008 24.8109C41.8252 25.442 41.1728 25.7991 40.4086 25.9782C39.1848 26.1438 38.2746 25.6641 37.2217 25.0857C36.9825 24.9548 36.7428 24.8247 36.5027 24.6956C36.3978 24.638 36.293 24.5804 36.1849 24.521C35.8539 24.372 35.5803 24.3016 35.2188 24.2722C34.9274 24.3873 34.6769 24.5046 34.4053 24.655C34.2506 24.7362 34.0958 24.8172 33.9409 24.8981C33.8236 24.9603 33.8236 24.9603 33.7038 25.0238C33.3374 25.2162 32.9669 25.3989 32.5938 25.5779C32.4675 25.6397 32.3411 25.7016 32.211 25.7654C31.3859 26.0831 30.5894 26.0743 29.75 25.8034C28.9035 25.3844 28.3884 24.7995 28 23.9441C27.6737 22.8639 27.9757 21.6952 28.1823 20.6201C28.3784 19.6241 28.3784 19.6241 28.0791 18.6812C28.0192 18.6178 27.9592 18.5544 27.8975 18.489C27.8288 18.416 27.7602 18.3429 27.6894 18.2677C27.4344 18.0196 27.1723 17.7819 26.9063 17.5456C26.0152 16.7533 25.2853 16.0144 25.1149 14.786C25.0751 13.8774 25.3303 13.0951 25.8809 12.3708C26.7333 11.4954 27.8575 11.3474 29.0186 11.1882C29.3101 11.1472 29.6012 11.1044 29.8923 11.0609C30.02 11.0432 30.1476 11.0255 30.2791 11.0072C30.7295 10.9046 31.0478 10.7708 31.324 10.3914C31.3628 10.3137 31.4016 10.236 31.4415 10.156C31.4857 10.0694 31.53 9.98277 31.5755 9.89354C31.6205 9.80193 31.6656 9.71032 31.712 9.61594C31.8084 9.42738 31.9048 9.23882 32.0012 9.05027C32.1527 8.749 32.3026 8.44708 32.4515 8.1445C32.8619 7.33958 33.3582 6.72878 34.1934 6.34152C35.1223 6.05079 36.1948 6.07425 37.0344 6.58538ZM34.4532 8.41281C34.2921 8.68254 34.1585 8.93551 34.0293 9.21946C33.9539 9.37718 33.8783 9.53484 33.8025 9.69242C33.7651 9.77128 33.7276 9.85015 33.6891 9.93141C33.5246 10.2745 33.3516 10.612 33.1749 10.9489C33.0896 11.1137 33.0896 11.1137 33.0027 11.2818C32.5324 12.031 31.8739 12.565 31.0115 12.7674C30.5668 12.8426 30.1221 12.9071 29.6749 12.9655C29.4444 12.9966 29.214 13.0283 28.9838 13.0614C28.7759 13.0912 28.5677 13.1189 28.3595 13.1465C27.9931 13.2268 27.7598 13.3419 27.4532 13.5534C27.3584 13.6177 27.3584 13.6177 27.2618 13.6833C27.0401 14.0047 26.9834 14.3739 27.0157 14.7566C27.2399 15.1874 27.5134 15.494 27.8629 15.8285C27.9635 15.9264 28.0641 16.0244 28.1677 16.1252C28.3262 16.2783 28.485 16.431 28.6444 16.583C29.5272 17.4278 30.1498 18.1322 30.2034 19.3952C30.2012 20.1226 30.0331 20.8337 29.896 21.5453C29.7779 22.1992 29.6629 22.8564 29.8594 23.5066C30.1052 23.8327 30.4048 24.008 30.7823 24.1628C31.4158 24.1628 32.0297 23.7315 32.5733 23.4334C34.929 22.1468 34.929 22.1468 36.3125 22.5222C36.838 22.736 37.3362 23.0083 37.8358 23.2759C38.2028 23.4722 38.5717 23.6632 38.9444 23.8484C39.072 23.9141 39.1996 23.9798 39.331 24.0475C39.7958 24.1915 40.0239 24.1275 40.4688 23.9441C40.8883 23.5781 40.9977 23.4245 41.0704 22.8708C41.0484 22.4618 40.974 22.0667 40.8969 21.6649C40.7564 20.9312 40.6483 20.2146 40.6329 19.4665C40.6295 19.3234 40.6261 19.1803 40.6226 19.0329C40.7079 18.0007 41.3893 17.2587 42.1094 16.5818C42.224 16.4708 42.224 16.4708 42.341 16.3577C42.5546 16.1511 42.7694 15.946 42.9844 15.7409C43.5527 15.2178 43.5527 15.2178 43.7911 14.5036C43.7423 14.0242 43.6252 13.8074 43.3125 13.4441C42.8944 13.2377 42.4844 13.1672 42.0253 13.0997C41.8829 13.0777 41.7406 13.0557 41.594 13.0331C41.3701 12.9991 41.1463 12.9657 40.9223 12.9331C39.7339 12.7587 38.8162 12.5999 38.0289 11.6362C37.6601 11.0977 37.3945 10.5068 37.1192 9.91672C37.0005 9.66263 36.8807 9.4091 36.7594 9.15622C36.7076 9.04495 36.6558 8.93367 36.6024 8.81902C36.4003 8.48658 36.1945 8.30355 35.875 8.08469C35.6538 8.021 35.6538 8.021 35.4375 8.03684C35.3676 8.03698 35.2977 8.03712 35.2256 8.03726C34.9023 8.10525 34.7159 8.20895 34.4532 8.41281Z" fill="black"/>
<path d="M28.6562 2.72539C29.2019 3.19084 29.692 3.90485 29.7829 4.62749C29.7548 4.96469 29.6763 5.19708 29.4629 5.45976C29.0905 5.61655 28.8378 5.62531 28.4375 5.56914C27.8225 5.11911 27.3076 4.31652 27.166 3.56621C27.2527 3.1934 27.407 2.99804 27.6719 2.72539C28.0203 2.55118 28.2846 2.64208 28.6562 2.72539Z" fill="black"/>
<path d="M43.0938 2.72541C43.436 2.95361 43.5146 3.09043 43.6064 3.49103C43.5695 4.19831 43.0359 4.90746 42.6033 5.44141C42.3486 5.63765 42.0853 5.62033 41.7744 5.60718C41.5625 5.56916 41.5625 5.56916 41.2959 5.39142C41.0856 5.07181 41.0436 4.85668 41.0156 4.47541C41.1331 4.16736 41.1331 4.16736 41.3096 3.86701C41.3703 3.76338 41.4311 3.65975 41.4937 3.55298C41.9749 2.79484 42.1787 2.52031 43.0938 2.72541Z" fill="black"/>
<path d="M23.2969 7.97531C23.9789 8.28472 24.6141 8.58219 24.9376 9.28781C24.9306 9.69309 24.9149 9.94594 24.6573 10.2653C24.2558 10.4404 23.9374 10.4785 23.5157 10.3816C22.3477 9.83269 22.3477 9.83269 21.9844 9.28781C21.9125 8.53267 21.9125 8.53267 22.1485 8.13937C22.5472 7.90018 22.8546 7.86847 23.2969 7.97531Z" fill="black"/>
<path d="M35.4444 0.688198C35.8751 0.756557 35.8751 0.756557 36.1169 0.972744C36.3822 1.42104 36.3811 1.77619 36.3741 2.28781C36.3767 2.37466 36.3793 2.46151 36.382 2.55099C36.3808 3.02186 36.354 3.21796 36.0596 3.6033C35.7657 3.81906 35.7657 3.81906 35.376 3.88058C34.9475 3.81045 34.8223 3.72117 34.5626 3.38156C34.3852 3.02681 34.4193 2.64306 34.4122 2.25363C34.406 2.12896 34.406 2.12896 34.3998 2.00177C34.3925 1.53927 34.4133 1.35622 34.7014 0.97488C35.1029 0.681408 35.1029 0.681408 35.4444 0.688198Z" fill="black"/>
<path d="M21.6084 15.1326C21.7478 15.1308 21.7478 15.1308 21.8901 15.1289C22.5638 15.1369 22.5638 15.1369 22.9174 15.4004C23.111 15.679 23.1793 15.8378 23.1875 16.1785C23.0564 16.5499 22.9755 16.7731 22.6209 16.9612C22.252 17.0715 21.9318 17.0864 21.5468 17.0876C21.416 17.0895 21.2852 17.0913 21.1503 17.0932C20.751 17.0502 20.5513 16.9671 20.2343 16.7253C19.9778 16.3405 19.9522 16.194 20.0156 15.741C20.4705 15.1138 20.89 15.1123 21.6084 15.1326Z" fill="black"/>
<path d="M48.3437 7.97533C48.6171 8.1394 48.6171 8.1394 48.7812 8.41283C48.8555 8.93303 48.8773 9.15449 48.5692 9.58178C47.4769 10.4066 47.4769 10.4066 46.7782 10.4431C46.3749 10.3816 46.3749 10.3816 46.1015 10.2175C45.8724 9.83574 45.8418 9.49603 45.9374 9.06908C46.4914 8.30058 47.4059 7.83229 48.3437 7.97533Z" fill="black"/>
<path d="M49.2188 15.1395C49.3175 15.1378 49.4162 15.1361 49.5179 15.1343C50.2316 15.1386 50.2316 15.1386 50.5963 15.389C50.8348 15.7653 50.8395 16.0757 50.7501 16.5066C50.5086 16.8313 50.3688 16.9254 49.9845 17.0535C49.7364 17.0695 49.4879 17.0777 49.2393 17.0809C49.042 17.0851 49.042 17.0851 48.8407 17.0894C48.4176 17.0502 48.157 16.9471 47.797 16.7254C47.6258 16.3831 47.6113 16.0023 47.6876 15.6316C48.0538 15.0469 48.598 15.1288 49.2188 15.1395Z" fill="black"/>
</g>
<defs>
<clipPath id="clip0_28_600">
<rect width="56" height="56" fill="white" transform="translate(0 0.756592)"/>
</clipPath>
</defs>
</svg>
